<svg xmlns="http://www.w3.org/2000/svg" width="992" height="985" viewBox="0 0 992 985" fill="none">
  <defs>
    <clipPath id="clip0_2191_2">
      <rect width="992" height="985" fill="white"/>
    </clipPath>
  </defs>
  <g id="Frame" clip-path="url(#clip0_2191_2)">
    <g id="Group">
      <path id="Vector" d="M828.511 475.968C834.807 468.635 843.368 464.021 850.524 457.699C860.184 449.165 870.477 441.351 880.112 432.779C890.796 423.271 901.177 413.397 910.42 402.397C915.553 396.303 920.674 390.209 925.353 383.761C931.472 375.328 936.694 366.313 941.562 357.134C944.281 352.001 946.582 346.602 948.504 341.128C949.908 337.133 951.437 333.163 952.55 329.041C953.473 325.577 954.788 322.214 955.61 318.699C956.773 313.73 958.025 308.786 958.695 303.716C959.201 299.911 959.846 296.13 960.541 292.363C960.617 291.933 960.756 291.49 960.731 291.06C960.415 284.587 961.894 278.126 961.173 271.704C960.567 266.28 960.68 260.843 959.896 255.394C959.049 249.54 957.949 243.711 957.026 237.87C956.293 233.23 954.826 228.691 953.473 224.178C952.07 219.487 950.211 214.935 948.719 210.27C947.847 207.539 946.544 204.821 945.179 202.254C942.182 196.603 939.375 190.862 936.037 185.375C933.23 180.786 930.511 176.12 927.35 171.796C920.725 162.706 913.909 153.704 905.969 145.675C899.887 139.531 893.944 133.247 887.395 127.57C880.643 121.716 873.853 115.926 866.734 110.527C860.159 105.533 853.268 101.032 846.352 96.5563C841.155 93.1931 835.971 89.8427 830.61 86.7198C822.947 82.2567 815.209 77.9327 807.319 73.8742C799.442 69.8157 791.463 65.9722 783.295 62.5332C777.82 60.2195 772.421 57.7287 766.82 55.6805C762.382 54.0622 758.045 51.9887 753.581 50.4589C746.918 48.1704 740.317 45.6671 733.502 43.7958C730.556 42.9867 727.559 41.9752 724.626 40.989C722.299 40.2052 719.682 39.75 717.216 39.1558C713.853 38.3466 710.439 37.5627 707.164 36.5386C703.308 35.3248 699.363 34.4145 695.468 33.4157C688.312 31.5824 681.041 30.1664 673.796 28.7124C668.397 27.6251 662.935 26.8412 657.548 25.7539C647.446 23.731 637.242 22.3276 627.051 21.0253C614.457 19.4196 601.788 18.4208 589.105 17.4725C578.763 16.7013 568.445 16.5622 558.102 16.5496C546.052 16.5369 534.002 16.4231 521.952 16.6002C514.796 16.7013 507.652 17.599 500.508 17.9909C495.159 18.2817 489.861 19.015 484.5 19.2047C480.694 19.3437 476.926 20.1782 473.133 20.6713C467.886 21.3667 462.613 21.923 457.391 22.7827C454.546 23.2505 451.701 23.5919 448.869 24.0597C444.304 24.8183 439.752 25.6275 435.188 26.4113C428.689 27.5239 422.253 29.0791 415.804 30.4825C412.087 31.2916 408.382 32.1387 404.703 33.0743C399.177 34.4777 393.639 35.8559 388.177 37.4868C383.347 38.9282 378.441 40.0661 373.686 41.7982C369.678 43.2648 365.531 44.3395 361.548 45.9326C356.87 47.8038 351.989 49.1692 347.386 51.1922C339.863 54.4794 332.188 57.3874 324.88 61.1804C318.836 64.3159 312.653 67.2112 306.558 70.2582C303.625 71.7248 300.97 73.6719 298.074 75.2397C293.421 77.7557 289.021 80.7521 284.608 83.698C275.024 90.0829 265.831 96.9988 256.968 104.345C247.712 112.019 239.114 120.414 230.946 129.189C225.041 135.523 219.503 142.224 214.053 148.975C207.036 157.687 200.385 166.663 193.696 175.615C188.272 182.872 183.138 190.331 177.613 197.5C175.211 200.61 172.226 203.291 169.382 206.034C167.902 207.463 166.372 208.74 165.487 210.687C164.83 212.141 161.163 212.672 158.824 211.724C156.383 210.725 153.88 210.042 151.338 209.36C148.253 208.525 145.307 208.196 142.272 209.398C141.552 209.688 140.73 209.916 139.958 209.423" stroke="white" stroke-opacity="0.5" stroke-width="2" stroke-miterlimit="10" stroke-linecap="round" stroke-linejoin="round" />
      <path id="Vector_2" d="M944.205 160.671C939.008 153.389 932.888 146.877 926.882 140.277C921.799 134.689 916.438 129.392 910.963 124.17C904.237 117.747 897.169 111.767 889.961 105.913C884.132 101.172 878.025 96.8098 871.893 92.4605C867.455 89.3124 862.903 86.278 858.351 83.3321C853.293 80.0575 847.983 77.099 842.685 74.1531C835.376 70.0946 828.182 65.7832 820.697 62.0914C812.794 58.1846 804.853 54.3537 796.748 50.8515C788.53 47.2987 780.248 43.8851 771.915 40.5978C767.047 38.6887 762.141 36.8554 757.197 35.1865C750.256 32.8475 743.264 30.6602 736.284 28.4603C731.479 26.9431 726.662 25.4512 721.819 24.0857C718.064 23.0236 714.22 22.2903 710.465 21.1904C704.408 19.4203 698.162 18.4215 692.08 16.7273C688.35 15.6905 684.354 15.3112 680.51 14.4768C676.717 13.6423 672.873 13.1492 669.093 12.0872C666.918 11.4803 664.478 11.2907 662.151 10.9746C657.131 10.3045 652.187 9.30569 647.18 8.58502C643.147 8.00343 639.088 7.52299 635.042 7.0299C626.798 6.00579 618.516 5.22191 610.272 4.29895C606.112 3.83115 601.939 4.22309 597.868 3.57828C592.014 2.64268 586.147 2.85762 580.293 2.38981C572.82 1.79558 565.309 2.09902 557.824 1.78294C550.933 1.49214 544.029 1.04963 537.163 1.41628C525.72 2.02316 514.239 1.84615 502.809 2.7944C497.84 3.21163 492.845 3.62886 487.851 3.84379C484.45 3.98287 480.96 4.55182 477.508 4.9564C471.135 5.715 464.712 6.20809 458.415 7.35862C452.915 8.35744 447.351 9.02754 441.877 10.1275C438.45 10.8102 434.985 11.3286 431.559 11.9861C428.36 12.5929 425.199 13.3768 422 14.0469C414.401 15.64 406.865 17.5618 399.278 19.218C394.284 20.3053 389.479 22.2145 384.535 23.4914C381.222 24.3385 378.023 25.5144 374.723 26.3362C370.159 27.4741 365.759 29.0798 361.308 30.5338C354.151 32.8601 347.121 35.5152 340.116 38.2335C330.178 42.0897 320.315 46.085 310.706 50.6871C304.105 53.848 297.518 57.0341 291.095 60.5236C283.597 64.5948 276.389 69.1969 269.056 73.5462C256.449 81.0437 244.577 89.4894 233.247 98.7316C226.457 104.282 220.047 110.288 213.813 116.483C208.275 121.983 202.952 127.672 197.844 133.564C192.091 140.189 186.894 147.257 181.469 154.147C177.638 159.027 174.174 164.186 170.191 168.927C165.184 174.895 161.036 181.482 156.573 187.829C155.359 189.548 153.387 190.244 152.185 191.71C148.835 195.794 145.598 199.992 142.652 204.366C141.514 206.06 140.477 207.97 139.352 209.651C137.885 211.838 137.341 213.975 137.417 216.453" stroke="white" stroke-opacity="0.5" stroke-width="2" stroke-miterlimit="10" stroke-linecap="round" stroke-linejoin="round" />
      <path id="Vector_3" d="M883.26 258.278C874.472 247.708 864.938 237.897 854.608 228.832C846.162 221.423 837.349 214.494 828.232 207.97C819.457 201.686 810.353 195.871 800.934 190.548C796.571 188.082 792.095 185.819 787.746 183.354C779.805 178.878 771.46 175.262 763.178 171.545C754.39 167.6 745.451 164.035 736.322 160.95C726.055 157.473 715.851 153.87 705.369 151.012C698.718 149.204 692.13 147.131 685.429 145.525C679.448 144.084 673.43 142.693 667.411 141.403C660.608 139.962 653.793 138.559 646.953 137.256C643.905 136.675 640.807 136.118 637.684 135.726C633.284 135.183 628.909 134.374 624.496 133.792C620.703 133.286 616.923 132.743 613.129 132.25C607.794 131.541 602.458 130.859 597.122 130.189C595.845 130.024 594.542 129.974 593.253 129.923C588.069 129.734 582.897 129.013 577.776 128.431C570.19 127.571 562.603 127.66 555.029 127.091C550.983 126.788 546.937 126.37 542.891 126.345C532.131 126.295 521.358 126.016 510.61 126.598C504.073 126.952 497.486 127.091 490.999 127.761C486.081 128.267 481.111 128.115 476.269 128.95C469.567 130.113 462.79 130.644 456.088 131.832C452.712 132.439 449.286 133.16 445.783 133.337C443.179 133.476 440.625 134.348 438.033 134.803C431.786 135.891 425.591 137.155 419.433 138.685C413.503 140.164 407.522 141.492 401.63 143.123C397.356 144.299 393.196 145.904 388.96 147.194C384.788 148.471 380.641 149.773 376.569 151.328C373.067 152.681 369.438 153.743 365.999 155.26C360.675 157.612 355.226 159.673 349.928 162.1C345.616 164.073 341.368 166.171 337.081 168.169C332.858 170.141 328.749 172.354 324.677 174.605C319.076 177.715 313.588 181.015 308.088 184.315C302.36 187.754 296.923 191.597 291.411 195.339C285.695 199.221 280.486 203.836 275.074 208.16C267.197 214.456 260.154 221.663 253.212 228.907C245.854 236.582 239.291 245.015 232.944 253.587C228.101 260.124 223.524 266.825 219.301 273.753C218.605 274.904 218.087 276.155 217.48 277.356" stroke="white" stroke-opacity="0.5" stroke-width="2" stroke-miterlimit="10" stroke-linecap="round" stroke-linejoin="round" />
      <path id="Vector_4" d="M296.759 485.008C295.912 484.085 296.266 482.947 296.253 481.911C296.253 477.473 295.027 473.187 294.824 468.749C294.609 463.907 293.143 459.127 292.713 454.272C292.384 450.467 291.688 446.712 291.284 442.919C290.816 438.506 289.994 434.132 289.261 429.744C287.996 422.083 286.694 414.421 285.392 406.759C284.115 399.261 283.04 391.726 281.459 384.304C280.018 377.591 278.968 370.789 277.186 364.138C275.643 358.348 274.669 352.418 273.215 346.602C271.938 341.482 270.168 336.475 268.916 331.342C267.842 326.955 266.463 322.694 264.971 318.446C261.924 309.772 259.003 301.061 252.125 294.373C250.039 292.35 248.875 289.467 246.397 287.697C240.973 283.816 234.79 281.856 228.303 281.338C220.312 280.693 212.321 280.756 204.279 281.628C198.374 282.273 192.419 282.703 186.476 283.095C184.238 283.247 181.912 283.209 179.787 283.689C176.007 284.536 172.176 284.334 168.395 284.89C161.529 285.877 154.6 286.231 147.722 287.065C144.004 287.507 140.439 288.14 136.886 289.24C130.121 291.338 126.985 296.56 124.406 302.654C122.168 307.939 120.929 313.489 120.044 318.989C119.247 323.92 118.488 328.927 117.894 333.921C117.363 338.308 117.477 342.759 116.364 347.146C115.605 350.155 116.061 353.48 115.795 356.679C115.049 365.694 114.796 374.759 114.126 383.786C113.519 391.878 113.911 399.982 113.595 408.061C113.216 417.695 112.798 427.342 112.9 436.989C113.039 449.898 113.62 462.807 113.722 475.728C113.797 485.033 114.72 494.339 115.441 503.594C115.871 509.157 116.314 514.821 117.06 520.422C117.894 526.655 118.425 532.964 119.121 539.235C120.132 548.3 121.384 557.328 122.712 566.355C123.963 574.813 125.481 583.221 126.808 591.667C128.009 599.341 129.324 607.016 130.842 614.614C132.157 621.176 133.257 627.801 135.04 634.287C136.039 637.929 136.671 641.671 137.391 645.388C138.264 649.927 139.604 654.352 140.717 658.828C141.311 661.243 141.867 663.658 142.55 666.047C143.992 671.105 145.307 676.2 146.71 681.27C148.253 686.833 150.162 692.295 151.97 697.769C154.638 705.912 157.913 713.852 161.719 721.551C163.54 725.243 165.854 728.644 168.382 731.906C169.558 733.411 171.682 733.992 172.277 736.028" stroke="white" stroke-opacity="0.5" stroke-width="2" stroke-miterlimit="10" stroke-linecap="round" stroke-linejoin="round" />
      <path id="Vector_5" d="M52.9663 322.834C50.7283 322.442 48.8064 323.706 46.7959 324.237C41.9658 325.514 37.0978 326.981 32.6091 329.118C24.795 332.847 18.9914 338.676 15.9694 347.071C15.1728 349.271 13.3268 350.978 12.2773 353.228C10.5703 356.844 9.88754 360.663 8.85071 364.418C8.0162 367.452 7.4725 370.588 7.02995 373.71C6.23337 379.286 5.74024 384.912 4.90573 390.488C4.10914 395.722 4.55169 401.058 3.41371 406.254C3.12289 407.594 3.18612 409.036 3.19876 410.376C3.24934 416.773 2.32631 423.108 2.02285 429.48C1.49179 440.846 1.2642 452.2 1.30213 463.566C1.35271 475.792 1.1504 488.018 1.36535 500.232C1.50444 508.5 2.04814 516.769 2.68035 525.013C2.88265 527.592 2.95852 530.184 3.16083 532.763C3.5528 537.77 4.14707 542.751 4.67813 547.745C5.09539 551.703 5.34827 555.698 6.01841 559.617C6.95408 565.117 7.38399 570.68 8.50932 576.167C9.35648 580.251 9.60936 584.449 10.4186 588.545C10.9749 591.39 11.4933 594.26 12.075 597.092C12.7578 600.43 13.2888 603.805 13.9969 607.143C15.4636 613.958 16.6775 620.823 18.4729 627.588C19.7879 632.531 20.7868 637.588 22.2283 642.532C23.695 647.551 25.01 652.596 26.717 657.565C27.7538 660.549 28.5124 663.735 29.524 666.782C30.978 671.232 32.8241 675.556 34.3667 679.969C35.8334 684.179 37.5024 688.389 39.9175 692.03C45.4051 700.312 51.9548 707.43 62.2598 710.009C65.876 710.919 69.4417 712.019 73.1338 712.474C81.4537 713.511 89.8241 714.181 98.1566 715.041C103.138 715.559 108.196 715.812 113.203 716.659C118.122 717.494 122.99 718.556 127.896 719.428C129.274 719.669 130.387 721.337 132.018 720.25" stroke="white" stroke-opacity="0.5" stroke-width="2" stroke-miterlimit="10" stroke-linecap="round" stroke-linejoin="round" />
      <path id="Vector_6" d="M131.209 291.074C127.732 289.987 124.305 290.745 120.878 291.34C118.033 291.833 115.188 292.313 112.356 292.895C109.284 293.527 106.224 294.677 103.923 296.599C99.8132 300.038 96.1337 304.173 95.1601 309.685C94.6543 312.53 93.9336 315.349 93.3773 318.156C92.1761 324.162 91.1519 330.192 90.4312 336.261C89.9001 340.825 89.1794 345.352 88.7368 349.929C88.2184 355.175 87.7379 360.435 87.308 365.695C86.9414 370.259 86.5873 374.823 86.208 379.375C85.3608 389.439 85.462 399.541 84.6907 409.592C83.7677 421.553 84.4252 433.526 84.2102 445.486C83.97 458.496 85.1079 471.481 85.5126 484.466C85.7781 493.202 86.1068 502.116 87.7885 510.827C88.1426 512.673 88.0667 514.607 88.0667 516.504C88.0793 519.88 88.6104 523.255 89.0277 526.555C89.8116 532.586 90.4817 538.617 91.1392 544.66C91.5565 548.529 92.037 552.436 92.6312 556.254C93.6934 563.056 94.5152 569.909 95.7923 576.686C97.1452 583.892 98.1694 591.15 99.4591 598.369C100.572 604.589 101.874 610.759 103.05 616.967C104.479 624.503 106.35 631.962 107.779 639.472C109.157 646.755 111.357 653.835 112.685 661.118C113.406 665.062 115.011 668.843 115.934 672.762C117.679 680.171 120.044 687.416 122.244 694.686C123.774 699.705 125.696 704.61 127.706 709.491C129.198 713.119 130.614 716.9 132.536 720.174C135.533 725.257 138.378 730.782 144.093 733.728C148.493 736.004 153.26 736.509 158.052 736.762C161.921 736.965 165.803 736.826 169.672 736.788C170.355 736.775 171.076 737.053 171.746 736.56C172.998 735.637 174.072 736.282 175.387 736.724C178.346 737.736 181.406 738.482 184.656 738.128C191.964 737.344 199.336 737.23 206.606 736.029" stroke="white" stroke-opacity="0.5" stroke-width="2" stroke-miterlimit="10" stroke-linecap="round" stroke-linejoin="round" />
      <path id="Vector_7" d="M641.01 690.83C640.377 690.627 639.998 690.273 639.973 689.54C639.644 680.791 636.534 672.724 632.829 665.1C629.82 658.931 625.47 653.393 619.906 648.917C616.707 646.35 613.471 643.834 610.322 641.205C606.769 638.246 603.823 634.643 600.005 631.887C595.124 628.359 589.864 625.868 584.225 623.896C577.662 621.608 570.872 620.874 564.057 620.394C559.227 620.052 554.422 620.988 549.605 621.393C546.722 621.633 544.029 622.935 541.083 622.935C539.641 622.935 538.276 623.656 536.999 624.086C531.599 625.856 526.188 627.613 520.89 629.775C512.583 633.164 504.756 637.386 497.233 642.128C491.935 645.465 486.801 649.145 481.92 653.127C474.448 659.234 467.418 665.808 460.779 672.788C454.837 679.046 449.172 685.583 444.279 692.688C439.019 700.325 434.062 708.163 429.725 716.394C426.134 723.222 422.834 730.213 420.065 737.382C418.257 742.073 416.424 746.903 415.437 751.821C414.464 756.688 413.364 761.569 412.504 766.474C411.113 774.414 410.607 782.329 411.05 790.256C411.252 794.024 411.631 797.868 412.504 801.673C413.338 805.302 414.173 808.918 415.286 812.471C417.094 818.249 419.812 823.546 423.302 828.477" stroke="white" stroke-opacity="0.5" stroke-width="2" stroke-miterlimit="10" stroke-linecap="round" stroke-linejoin="round" />
      <path id="Vector_8" d="M369.842 529.943C361.434 534.836 353.354 540.235 345.3 545.672C335.817 552.069 326.865 559.124 318.128 566.52C310.162 573.272 303.233 580.959 296.62 588.912C292.713 593.602 289.539 598.963 286.302 604.223C282.926 609.697 280.119 615.462 277.287 621.165C275.125 625.514 273.721 630.331 272.09 634.984C270.434 639.7 268.917 644.504 267.791 649.283C266.666 654.088 265.591 658.993 264.984 663.95C264.453 668.261 263.732 672.547 263.214 676.871C262.696 681.17 262.24 685.468 261.924 689.78C260.887 703.624 261.014 717.494 261.178 731.351C261.292 741.263 262.013 751.163 262.822 761.063C263.227 765.955 263.657 770.886 264.175 775.754C264.655 780.217 265.174 784.743 266.008 789.206C267.513 797.26 268.841 805.352 271.218 813.216C271.724 814.885 272.406 816.491 273.013 818.122" stroke="white" stroke-opacity="0.5" stroke-width="2" stroke-miterlimit="10" stroke-linecap="round" stroke-linejoin="round" />
      <path id="Vector_9" d="M549.592 413.221C542.246 408.302 534.685 403.839 526.112 401.285C520.587 399.642 515.112 398.238 509.333 397.518C505.262 397.012 501.241 396.683 497.17 396.708C489.128 396.759 481.238 398.036 473.411 399.781C465.003 401.652 456.898 404.396 448.843 407.443C444.102 409.238 439.411 411.172 434.644 412.879C427.601 415.395 420.912 418.67 414.047 421.565C407.168 424.46 400.555 427.975 393.879 431.313C387.064 434.714 380.337 438.317 373.497 441.693C367.073 444.854 360.928 448.571 354.606 451.947C345.806 456.663 337.145 461.632 328.483 466.6C319.354 471.847 310.604 477.663 301.614 483.113C291.841 489.042 282.522 495.579 273.57 502.634C268.651 506.503 264.137 510.928 259.598 515.239C251.834 522.61 244.652 530.525 238.381 539.223C237.913 539.868 237.331 540.602 236.333 540.526" stroke="white" stroke-opacity="0.5" stroke-width="2" stroke-miterlimit="10" stroke-linecap="round" stroke-linejoin="round" />
      <path id="Vector_10" d="M380.173 595.789C372.485 601.833 364.797 607.863 357.678 614.615C350.117 621.784 343.403 629.635 337.878 638.435C333.49 645.427 329.874 652.823 326.865 660.561C324.867 665.706 322.932 670.89 321.478 676.15C320.226 680.651 319.367 685.354 318.57 690.019C317.9 693.901 317.508 697.795 316.901 701.664C315.889 708.162 315.308 714.737 315.156 721.286C314.916 731.869 314.979 742.464 315.131 753.046C315.257 762.718 316.345 772.34 317.179 781.974C317.584 786.715 318.09 791.456 318.747 796.172C319.379 800.673 320.378 805.111 321.01 809.612C321.857 815.542 323.198 821.396 324.766 827.136C327.219 836.176 330.266 845.064 335.007 853.244C340.495 862.701 347.348 870.907 356.958 876.47C357.944 877.039 358.247 877.962 358.753 878.822" stroke="white" stroke-opacity="0.5" stroke-width="2" stroke-miterlimit="10" stroke-linecap="round" stroke-linejoin="round" />
      <path id="Vector_11" d="M661.67 727.76C652.364 732.703 643.539 738.418 634.814 744.297C624.787 751.061 615.115 758.281 607.174 767.536C601.408 774.249 596.098 781.342 591.799 789.029C588.499 794.921 585.565 801.103 583.453 807.564C581.62 813.178 579.61 818.829 578.636 824.62C577.41 831.865 576.537 839.198 575.677 846.518C575.02 852.119 575.386 857.783 574.198 863.346C573.502 866.596 573.68 870.035 573.604 873.398C573.325 885.105 572.289 896.8 572.605 908.521C572.896 919.634 573.338 930.748 574.198 941.823C574.729 948.499 575.374 955.326 577.574 961.673C579.648 967.615 581.367 973.975 586.956 978.071C587.512 978.476 588.549 979.374 588.309 980.575" stroke="white" stroke-opacity="0.5" stroke-width="2" stroke-miterlimit="10" stroke-linecap="round" stroke-linejoin="round" />
      <path id="Vector_12" d="M250.532 292.881C248.091 293.361 245.562 292.805 243.236 294.6C240.568 296.661 239.114 299.455 237.698 302.212C235.485 306.498 233.993 311.201 233.108 315.879C232.084 321.341 230.895 326.803 230.174 332.353C229.694 336.121 229.681 340.028 228.442 343.783C227.721 345.983 228.303 348.587 228.038 350.977C227.039 359.991 226.925 369.069 226.192 378.084C225.446 387.212 225.901 396.341 225.762 405.457C225.648 412.777 225.332 420.123 225.838 427.405C226.546 437.469 226.432 447.584 227.494 457.635C228.126 463.628 228.113 469.697 228.607 475.703C229.353 484.755 230.162 493.795 231.224 502.81C231.717 507.033 232.134 511.268 232.59 515.478C233.411 522.976 233.968 530.524 235.447 537.895C236.18 541.511 235.384 543.85 233.045 546.265C232.691 546.631 232.261 547.428 231.881 547.959C227.823 553.547 224.282 559.439 221.083 565.558C218.719 570.06 216.291 574.535 214.395 579.251C212.548 583.853 210.652 588.43 209.046 593.133C207.921 596.408 206.669 599.771 205.822 603.058C204.734 607.269 203.571 611.529 202.838 615.879C202.319 618.964 201.7 622.15 201.143 625.235C200.511 628.75 200.195 632.429 199.917 636.045C198.88 650.079 198.893 664.113 199.917 678.134C200.347 684.077 200.638 690.032 201.245 695.949C201.788 701.284 202.433 706.632 203.141 711.942C203.761 716.519 204.557 721.121 205.392 725.686C205.86 728.277 206.492 730.945 206.707 733.651C206.934 736.521 207.782 739.353 208.439 742.172C209.337 745.978 210.273 749.758 211.271 753.539C213.016 760.075 215.141 766.473 217.935 772.668C223.637 785.311 231.78 796.172 241.478 805.958C246.195 810.712 250.747 815.643 255.728 820.118C263.037 826.68 270.585 833.002 278.184 839.235C281.029 841.561 283.609 844.292 286.934 845.986C293.231 849.185 297.909 854.546 303.726 858.377C310.073 862.549 316.648 866.329 323.552 869.604C328.066 871.741 332.681 873.688 337.347 875.281C340.95 876.52 344.908 877.152 348.6 878.201C353.089 879.478 357.729 878.404 362.117 879.997C363.507 880.503 364.683 881.274 365.948 881.919C370.588 884.283 375.444 886.053 380.413 887.621C387.253 889.783 394.321 890.377 401.352 890.516C406.574 890.63 411.922 890.2 417.106 888.898C418.687 888.506 420.368 888.518 421.999 888.341" stroke="white" stroke-opacity="0.5" stroke-width="2" stroke-miterlimit="10" stroke-linecap="round" stroke-linejoin="round" />
      <path id="Vector_13" d="M795.964 839.577C794.902 845.456 792.841 851.07 790.692 856.582C788.529 862.12 785.925 867.519 782.814 872.652C776.227 883.487 768.172 893.134 758.702 901.479C752.772 906.7 746.487 911.543 739.988 916.107C733.906 920.368 727.812 924.628 721.566 928.636C711.994 934.781 702.435 940.938 692.611 946.653C686.921 949.966 681.142 953.152 675.326 956.249C667.335 960.497 659.23 964.518 651.062 968.399C643.475 972.015 635.863 975.581 628.062 978.678C622.22 980.992 616.037 982.244 609.778 983.293C602.622 984.507 596.072 983.028 589.32 981.22C587.006 980.6 584.591 980.335 582.378 979.285C575.728 976.124 570.556 971.649 567.547 964.619C565.827 960.611 564.146 956.553 563.159 952.393C561.958 947.285 561.693 941.937 561.237 936.677C560.061 923.351 560.276 910 560.504 896.649C560.694 885.965 561.705 875.307 561.895 864.623C562.009 858.226 562.755 851.879 563.185 845.532C563.615 838.97 564.702 832.408 565.789 825.884C566.839 819.563 568.558 813.456 570.215 807.299C571.479 802.583 573.426 798.145 575.171 793.631C579.129 783.416 584.933 774.211 591.47 765.513C597.463 757.535 604.392 750.467 612.269 744.209C620.046 738.026 628.302 732.628 636.584 727.204C642.603 723.259 648.811 719.618 654.994 715.951C660.026 712.98 665.312 710.375 670.357 707.467C674.997 704.8 679.751 702.284 684.43 699.692C692.408 695.267 700.538 691.107 708.681 687.011C716.28 683.192 723.93 679.45 731.668 675.922C737.042 673.47 742.618 671.447 748.144 669.323C754.314 666.958 760.636 665.226 767.047 663.772C768.703 663.393 770.486 663.621 772.206 663.456C774.393 663.254 774.848 662.457 774.001 660.384C773.508 659.183 773.913 657.969 773.761 656.768C773.66 656.035 774.191 654.922 772.724 654.96" stroke="white" stroke-opacity="0.5" stroke-width="2" stroke-miterlimit="10" stroke-linecap="round" stroke-linejoin="round" />
      <path id="Vector_14" d="M621.904 736.535C621.513 735.7 621.108 734.879 621.652 733.956C622.448 732.603 622.398 731.035 622.663 729.556C624.067 721.704 625.179 713.815 624.737 705.799C624.357 698.946 622.865 692.347 620.425 685.886C618.212 680.057 615.051 674.861 610.765 670.461C604.797 664.329 597.476 660.536 589.131 658.488C581.152 656.541 573.136 656.579 565.107 657.552C558.481 658.361 551.969 660.018 545.749 662.445C532.232 667.73 519.752 674.836 508.221 683.749C501.228 689.16 494.641 694.964 488.711 701.437C482.11 708.644 476.066 716.293 470.731 724.562C466.507 731.111 462.714 737.837 459.174 744.753C458.908 745.271 459.148 746.03 458.428 746.321" stroke="white" stroke-opacity="0.5" stroke-width="2" stroke-miterlimit="10" stroke-linecap="round" stroke-linejoin="round" />
      <path id="Vector_15" d="M883.513 258.795C889.392 265.18 894.197 272.374 898.698 279.745C901.986 285.131 905.096 290.631 907.6 296.472C909.648 301.238 911.659 306.005 913.264 310.948C914.554 314.944 915.363 319.028 916.324 323.099C918.272 331.38 918.588 339.813 917.475 348.132C916.425 355.933 913.783 363.38 909.914 370.385C905.122 379.058 899.457 387.036 893.16 394.71C884.916 404.749 875.572 413.65 866.102 422.412C860.475 427.621 854.418 432.45 848.488 437.369C840.055 444.386 831.431 451.213 823.554 458.9C820.064 462.301 816.208 465.298 812.971 468.977C811.453 470.696 811.15 472.997 809.709 474.73C809.253 475.273 809.772 476.285 810.176 477.005" stroke="white" stroke-opacity="0.5" stroke-width="2" stroke-miterlimit="10" stroke-linecap="round" stroke-linejoin="round" />
      <path id="Vector_16" d="M632.487 520.651C632.829 517.692 631.754 514.949 631.185 512.129C630.211 507.274 628.719 502.571 627.038 497.931C625.938 494.884 624.762 491.85 623.421 488.891C619.401 480.079 613.787 472.265 607.92 464.629C606.327 462.568 604.265 460.886 602.559 458.901C601.155 457.27 598.93 457.763 597.286 456.436C595.2 454.742 592.582 453.667 590.129 452.478C585.236 450.127 580.001 449.039 574.653 448.294C569.38 447.548 564.145 447.661 558.898 448.344C554.498 448.913 550.06 449.267 545.736 450.215C540.842 451.277 536.088 452.921 531.258 454.274C526.554 455.576 521.939 457.194 517.362 458.813C512.937 460.368 508.524 462.113 504.136 463.845C499.319 465.741 494.463 467.575 489.684 469.547C484.664 471.62 479.682 473.795 474.7 475.995C468.53 478.713 462.385 481.469 456.341 484.466C450.07 487.576 443.52 490.155 437.274 493.329C426.981 498.576 416.638 503.722 406.498 509.259C394.789 515.644 383.043 521.979 371.65 528.92C371.587 528.958 371.486 528.92 371.397 528.92" stroke="white" stroke-opacity="0.5" stroke-width="2" stroke-miterlimit="10" stroke-linecap="round" stroke-linejoin="round" />
      <path id="Vector_17" d="M988.889 292.881C988.207 293.437 988.409 294.221 988.371 294.942C987.941 302.414 986.866 309.81 985.463 317.143C984.426 322.542 983.111 327.915 981.429 333.175C979.773 338.359 978.205 343.568 976.258 348.663C973.312 356.388 970.163 363.999 966.446 371.396C962.248 379.753 957.633 387.895 952.373 395.595C945.634 405.469 938.578 415.154 930.587 424.131C924.707 430.731 918.752 437.242 912.43 443.424C903.263 452.376 893.742 460.961 883.753 468.976C872.765 477.801 861.992 486.854 851.498 496.248" stroke="white" stroke-opacity="0.5" stroke-width="2" stroke-miterlimit="10" stroke-linecap="round" stroke-linejoin="round" />
      <path id="Vector_18" d="M989.914 292.363C990.849 293.021 990.685 294.007 990.685 294.943C990.685 306.992 990.824 319.041 990.622 331.09C990.533 336.868 989.724 342.62 989.42 348.398C989.155 353.329 988.422 358.197 987.966 363.102C987.612 366.883 987.094 370.688 986.576 374.481C985.931 379.311 985.134 384.116 984.363 388.92C983.591 393.75 982.593 398.579 981.632 403.397C981.063 406.241 980.468 409.086 979.823 411.918C978.913 415.888 978.079 419.883 976.953 423.79C975.929 427.318 975.158 430.908 973.995 434.423C972.642 438.532 971.39 442.679 970.05 446.801C968.355 452.048 966.32 457.194 964.157 462.2C961.919 467.384 959.302 472.492 956.659 477.549C953.094 484.377 949.414 491.103 944.951 497.387C943.965 498.765 943.851 501.104 941.36 501.015" stroke="white" stroke-opacity="0.5" stroke-width="2" stroke-miterlimit="10" stroke-linecap="round" stroke-linejoin="round" />
      <path id="Vector_19" d="M607.439 639.181C604.784 640.13 602.811 638.119 600.776 637.247C593.214 633.998 585.337 632.797 577.22 632.43C570.872 632.152 564.55 632.658 558.392 633.871C551.805 635.161 545.331 636.994 538.958 639.308C530.638 642.33 522.799 646.287 515.061 650.421C511.457 652.343 508.119 654.973 504.617 657.198C496.84 662.129 489.873 668.071 483.046 674.14C479.619 677.187 476.382 680.538 473.297 684.015C470.553 687.125 467.873 690.286 465.104 693.371C461.298 697.593 458.035 702.196 454.836 706.848C452.333 710.49 449.994 714.232 447.591 717.936" stroke="white" stroke-opacity="0.5" stroke-width="2" stroke-miterlimit="10" stroke-linecap="round" stroke-linejoin="round" />
      <path id="Vector_20" d="M253.629 352.279C252.416 357.893 252.289 363.62 251.708 369.31C250.645 379.551 250.544 389.792 250.279 400.058C250.114 406.43 249.748 412.803 249.811 419.162C249.925 430.781 250.152 442.413 250.582 454.02C250.936 463.414 251.518 472.808 252.264 482.151C252.947 490.761 253.592 499.396 254.59 507.994C254.982 511.357 255.033 514.758 255.956 518.058" stroke="white" stroke-opacity="0.5" stroke-width="2" stroke-miterlimit="10" stroke-linecap="round" stroke-linejoin="round" />
      <path id="Vector_21" d="M888.418 573.588C895.221 567.911 901.859 562.019 908.877 556.608C913.884 552.752 918.752 548.718 923.759 544.862C926.591 542.688 928.956 539.906 931.56 537.441C932.509 536.543 932.155 535.317 932.256 534.33C932.989 527.377 933.571 520.397 934.127 513.418C934.608 507.4 934.823 501.344 935.493 495.351C935.847 492.165 935 488.878 936.416 485.768C936.795 484.933 936.087 484.137 935.442 483.441C934.506 482.442 933.47 483.163 932.875 483.53C930.195 485.186 927.577 486.956 925.099 488.903C914.819 497.033 904.502 505.124 894.386 513.456C887.382 519.209 880.276 524.835 873.182 530.462" stroke="white" stroke-opacity="0.5" stroke-width="2" stroke-miterlimit="10" stroke-linecap="round" stroke-linejoin="round" />
      <path id="Vector_22" d="M763.431 677.402C765.58 676.719 767.692 675.758 769.892 675.392C773.331 674.835 776.707 673.748 780.209 673.799C785.128 673.874 789.882 674.292 794.472 676.77C801.667 680.664 803.93 687.377 805.751 694.432C807.559 701.449 807.394 708.694 807.85 715.863C808.431 725.244 808.267 734.638 808.039 744.007C807.761 755.12 807.028 766.221 806.231 777.322C806.016 780.419 806.421 783.681 805.65 786.589C804.372 791.394 804.765 796.299 803.968 801.129C803.146 806.111 802.792 811.256 802.122 816.314C801.49 821.08 800.617 825.834 799.517 830.512C798.91 833.117 798.834 835.936 797.254 838.275" stroke="white" stroke-opacity="0.5" stroke-width="2" stroke-miterlimit="10" stroke-linecap="round" stroke-linejoin="round" />
      <path id="Vector_23" d="M625.002 529.172C627.961 530.424 631.059 531.309 634.081 532.434C636.306 533.256 637.317 534.103 637.494 536.657C637.886 542.359 639.416 548.036 639.29 553.7C639.163 559.276 642.388 563.144 644.423 567.62C647.407 574.169 649.987 580.82 651.947 587.761C653.249 592.388 654.665 597.041 655.297 601.757C655.727 604.994 656.372 608.243 656.65 611.53C657.055 616.347 657.611 621.164 657.814 626.007C657.991 630.23 658.509 634.44 658.534 638.663C658.585 647.526 658.572 656.401 658.269 665.264C658.003 672.762 657.447 680.259 656.714 687.731C656.246 692.498 655.222 697.201 654.45 701.942" stroke="white" stroke-opacity="0.5" stroke-width="2" stroke-miterlimit="10" stroke-linecap="round" stroke-linejoin="round" />
      <path id="Vector_24" d="M800.617 697.277C802.539 701.273 802.969 705.672 803.374 709.933C804.284 719.795 805.106 729.695 804.739 739.62C804.322 750.809 803.728 761.998 803.209 773.188C802.931 779.13 802.767 785.135 801.97 790.977C801.275 796.148 801.262 801.357 800.352 806.541C799.593 810.89 799.138 815.441 798.708 819.917C798.202 825.215 796.988 830.449 795.913 835.671C795.661 836.922 795.825 837.959 796.242 839.034C796.52 839.754 796.71 838.781 797.001 838.907" stroke="white" stroke-opacity="0.5" stroke-width="2" stroke-miterlimit="10" stroke-linecap="round" stroke-linejoin="round" />
      <path id="Vector_25" d="M56.0639 279.455C55.5455 276.61 54.8248 273.791 54.5719 270.933C54.2811 267.634 53.0799 264.511 53.1305 261.122C53.1557 258.872 53.75 256.887 54.5466 254.94C56.9869 248.959 59.2376 242.903 61.5894 236.885C63.1194 232.978 64.4344 228.932 66.4574 225.253C68.961 220.714 73.26 218.932 78.2798 218.78C83.0972 218.641 87.9526 218.894 92.7321 218.439C100.571 217.705 108.411 218.198 116.238 217.983C124.76 217.743 133.269 216.555 141.804 217.035C146.874 217.313 151.894 218.299 156.294 221.321C162.869 225.835 164.058 231.474 159.063 237.568C155.827 241.513 151.351 243.763 146.483 245.419C139.048 247.948 131.411 247.822 123.736 247.973C109.536 248.264 95.3494 249.086 81.1247 249.099C75.1187 249.111 69.1001 250.11 63.0435 249.984C61.3871 249.946 60.0848 250.805 58.6686 251.349C57.8973 251.652 57.2398 252.221 56.3294 252.07" stroke="white" stroke-opacity="0.5" stroke-width="2" stroke-miterlimit="10" stroke-linecap="round" stroke-linejoin="round" />
      <path id="Vector_26" d="M624.484 528.906C620.703 529.058 617.466 527.047 613.926 526.2C609.121 525.062 604.291 524.418 599.448 523.672C593.354 522.736 587.12 523.28 581.139 522.243C576.271 521.396 571.568 521.864 566.915 522.331C561.92 522.85 556.85 523.229 551.893 524.506C549.124 525.214 546.254 526.023 543.396 526.188C541.247 526.314 540.69 527.882 540.943 528.855C541.98 532.965 540.602 537.213 542.031 541.309C542.638 543.041 542.549 544.988 541.942 546.986C540.4 552.094 536.303 554.382 532.017 556.178C526.15 558.63 519.979 559.225 513.708 557.568C512.797 557.328 511.824 557.379 510.875 557.29" stroke="white" stroke-opacity="0.5" stroke-width="2" stroke-miterlimit="10" stroke-linecap="round" stroke-linejoin="round" />
      <path id="Vector_27" d="M948.858 166.867C953.852 173.872 958.543 181.104 962.703 188.614C966.446 195.365 970.037 202.256 972.882 209.475C974.728 214.14 976.789 218.73 978.509 223.433C979.988 227.492 981.164 231.677 982.416 235.811C984.641 243.169 986.272 250.679 987.233 258.291C987.739 262.311 988.371 266.345 988.788 270.403C989.534 277.559 989.446 284.703 989.661 291.859" stroke="white" stroke-opacity="0.5" stroke-width="2" stroke-miterlimit="10" stroke-linecap="round" stroke-linejoin="round" />
      <path id="Vector_28" d="M543.915 851.715C543.599 853.611 541.702 853.599 540.526 854.231C533.736 857.847 526.732 861.071 519.36 863.246C513.303 865.041 507.171 866.558 500.811 867.392C495.614 868.075 490.468 868.025 485.297 868.29C483.665 868.379 482.262 867.645 480.643 867.62C478.115 867.595 476.774 869.618 474.713 870.351C467.784 872.804 460.817 875.219 454.078 878.139C449.147 880.263 443.975 881.641 438.993 883.538C435.997 884.676 432.735 885.574 429.523 886.383C427.196 886.964 424.731 887.028 422.531 888.127" stroke="white" stroke-opacity="0.5" stroke-width="2" stroke-miterlimit="10" stroke-linecap="round" stroke-linejoin="round" />
      <path id="Vector_29" d="M887.913 573.841C887.18 573.803 886.838 574.144 886.876 574.877C887.015 577.28 886.788 579.695 887.066 582.109C887.293 584.145 887.23 586.282 886.826 588.292C885.232 596.257 886.257 604.324 885.586 612.314C885.409 614.375 885.334 616.461 885.055 618.509C884.499 622.416 881.932 624.806 878.62 626.513C876.318 627.688 873.992 628.801 871.64 629.863C870.287 630.47 870.325 631.532 870.35 632.72C870.426 639.459 869.92 646.173 869.061 652.861C868.529 656.945 866.481 660.207 862.852 662.116C854.836 666.364 847.287 671.434 839.347 675.796C836.793 677.2 834.415 679.033 831.368 679.501C829.977 679.716 829.32 681.321 827.486 681.384C823.997 681.511 821.303 680.259 818.686 678.186C809.253 670.726 799.758 663.355 790.3 655.959C789.971 655.706 789.655 655.415 789.781 654.935" stroke="white" stroke-opacity="0.5" stroke-width="2" stroke-miterlimit="10" stroke-linecap="round" stroke-linejoin="round" />
      <path id="Vector_30" d="M570.505 734.979C571.972 739.277 572.238 743.601 571.618 748.165C570.822 754.108 568.811 759.646 566.244 764.88C564.234 768.989 561.541 772.858 558.392 776.335C553.373 781.885 547.834 786.677 541.07 790.015C534.748 793.138 528.046 794.465 521.193 793.239C515.276 792.177 510.774 788.472 508.018 783.01C505.59 778.206 505.565 772.946 506.02 767.788C506.286 764.728 507.474 761.757 508.245 758.735" stroke="white" stroke-opacity="0.5" stroke-width="2" stroke-miterlimit="10" stroke-linecap="round" stroke-linejoin="round" />
      <path id="Vector_31" d="M680.017 566.104C685.429 573.171 689.007 581.136 691.688 589.582C693.433 595.095 694.141 600.771 695.279 606.372C696.581 612.783 700.26 617.574 706.658 619.117C709.857 619.888 713.524 619.762 716.951 618.788C723.235 617.005 729.19 614.3 735.222 611.91C741.228 609.533 747.322 607.27 753.126 604.362C756.704 602.567 760.624 601.517 763.987 599.204C764.442 598.888 765.416 599.317 766.149 599.406" stroke="white" stroke-opacity="0.5" stroke-width="2" stroke-miterlimit="10" stroke-linecap="round" stroke-linejoin="round" />
      <path id="Vector_32" d="M837.551 562.486C837.298 565.672 836.894 568.846 836.805 572.045C836.464 583.942 835.705 595.814 834.997 607.686C834.706 612.579 834.668 617.497 834.453 622.403C833.96 633.681 833.442 644.958 832.898 656.236C832.595 662.431 832.215 668.627 831.874 674.834C831.785 676.415 830.635 677.818 831.103 679.487" stroke="white" stroke-opacity="0.5" stroke-width="2" stroke-miterlimit="10" stroke-linecap="round" stroke-linejoin="round" />
      <path id="Vector_33" d="M442.673 726.723C439.916 732.399 436.654 737.899 434.542 743.816C432.165 750.492 429.535 757.105 428.069 764.147C427.133 768.635 425.944 773.086 425.11 777.599C423.504 786.323 422.998 795.123 423.871 803.935C424.452 809.865 425.515 815.795 427.31 821.459C428.22 824.341 429.055 827.401 430.774 830.031C430.926 830.271 430.8 830.701 430.8 831.055" stroke="white" stroke-opacity="0.5" stroke-width="2" stroke-miterlimit="10" stroke-linecap="round" stroke-linejoin="round" />
      <path id="Vector_34" d="M887.647 582.627C890.593 581.553 892.819 579.328 895.057 577.38C900.999 572.197 907.284 567.43 913.214 562.234C917.905 558.125 923.279 554.951 928.197 551.133C935.025 545.823 938.426 538.983 938.919 530.221C939.286 523.773 939.653 517.287 940.424 510.826C940.854 507.236 941.347 503.443 940.588 499.738C940.525 499.409 940.487 499.017 940.588 498.714C942.637 492.519 941.246 486.147 941.562 479.85C941.676 477.751 938.502 474.616 935.923 473.92C932.484 472.985 929.373 473.794 926.629 475.994C921.003 480.508 915.54 485.211 910.065 489.889C904.527 494.618 898.761 499.081 893.046 503.607C885.068 509.916 877.039 516.174 869.048 522.471C868.643 522.787 868.352 523.242 868.011 523.621" stroke="white" stroke-opacity="0.5" stroke-width="2" stroke-miterlimit="10" stroke-linecap="round" stroke-linejoin="round" />
      <path id="Vector_35" d="M498.712 529.943C494.868 530.955 491.467 533.028 487.888 534.647C480.239 538.098 472.602 541.6 465.167 545.495C454.318 551.171 443.381 556.684 432.785 562.892C425.831 566.963 418.75 570.819 411.871 575.055C409.09 576.761 406.409 578.696 403.4 580.049" stroke="white" stroke-opacity="0.5" stroke-width="2" stroke-miterlimit="10" stroke-linecap="round" stroke-linejoin="round" />
      <path id="Vector_36" d="M812.503 563.006C805.612 566.875 798.734 570.769 791.842 574.625C785.255 578.317 778.566 581.819 771.7 584.954C765.075 587.976 758.411 590.897 751.786 593.931C745.818 596.662 739.559 598.748 733.489 601.252C727.838 603.578 722.173 605.854 716.47 608.028C713.234 609.267 710.363 608.812 707.417 607.649C706.431 607.257 706.127 606.031 705.887 605.095C705.015 601.593 704.231 598.065 703.535 594.513C702.789 590.644 701.525 586.927 700.463 583.146C699.198 578.645 697.163 574.435 695.127 570.313C693.053 566.141 690.095 562.361 687.212 558.656C682.255 552.284 676.629 546.544 670.484 541.297C667.588 538.819 664.199 537.112 661.127 534.912C654.691 530.31 647.648 526.846 640.264 523.951C634.018 521.498 627.607 519.753 621.146 517.996C616.012 516.592 610.853 515.442 605.619 514.809C601.168 514.266 596.743 513.469 592.203 513.33C584.87 513.103 577.561 513.292 570.253 513.545C565.688 513.71 561.111 514.506 556.547 515.163C552.741 515.72 548.998 516.554 545.192 517.073C544.143 517.212 543.131 517.578 542.094 517.831C539.793 518.388 539.085 517.958 539.009 515.77C538.794 510.157 536.442 507.906 530.74 505.694C524.81 503.393 518.665 503.241 512.684 504.783C507.829 506.035 503.112 508.222 501.089 513.469C500.47 515.062 499.749 516.693 501.696 518.489C502.986 519.677 503.479 521.827 505.161 523.028C511.47 527.529 518.361 528.426 525.847 526.934C531.448 525.822 535.304 522.509 538.491 518.097" stroke="white" stroke-opacity="0.5" stroke-width="2" stroke-miterlimit="10" stroke-linecap="round" stroke-linejoin="round" />
      <path id="Vector_37" d="M69.4925 476.235C63.3601 467.347 54.9517 462.871 44.2041 464.73C34.3922 466.411 27.6276 472.316 24.2642 481.899C23.278 484.693 22.3423 487.563 22.5825 490.433C23.3791 500.283 27.2609 508.261 36.9337 512.445C37.882 512.85 38.666 513.596 39.7913 513.419" stroke="white" stroke-opacity="0.5" stroke-width="2" stroke-miterlimit="10" stroke-linecap="round" stroke-linejoin="round" />
      <path id="Vector_38" d="M52.1821 330.065C55.5455 329.977 58.9594 329.471 62.2343 329.913C66.0275 330.432 69.884 331.228 72.8807 334.149C73.8416 335.085 74.5118 336.147 74.8658 337.297C76.5096 342.607 78.1154 347.93 79.4936 353.316C79.8603 354.77 80.7454 356.047 80.6316 357.691C80.404 361.016 78.4947 363.431 76.421 365.656C72.3496 370.018 67.2287 372.648 61.4883 374.241C56.6076 375.594 51.7143 375.935 46.7578 374.962C42.4587 374.127 38.7919 372.18 36.1619 368.526C35.0366 366.958 34.6573 365.391 35.6435 363.608C36.1493 362.698 35.9343 361.762 35.6815 360.763C34.9987 358.133 35.3021 355.326 34.1642 352.735C33.8228 351.951 33.8101 350.75 34.6194 349.928" stroke="white" stroke-opacity="0.5" stroke-width="2" stroke-miterlimit="10" stroke-linecap="round" stroke-linejoin="round" />
      <path id="Vector_39" d="M451.713 763.906C450.651 768.205 449.412 772.453 448.489 776.79C447.617 780.911 447.225 785.084 446.592 789.218C445.657 795.426 446.352 801.646 447.326 807.804C448.856 817.488 452.282 826.44 458.491 834.089C461.095 837.301 464.054 840.36 467.974 842.156" stroke="white" stroke-opacity="0.5" stroke-width="2" stroke-miterlimit="10" stroke-linecap="round" stroke-linejoin="round" />
      <path id="Vector_40" d="M201.978 281.262C202.231 277.532 200.941 274.03 200.397 270.427C199.386 263.7 198.185 256.999 197.072 250.273C196.275 245.456 195.997 240.487 194.632 235.847C192.76 229.5 189.308 223.937 183.909 219.803C179.585 216.49 174.919 213.974 169.457 213.051C168.205 212.836 167.042 212.065 165.828 211.547" stroke="white" stroke-opacity="0.5" stroke-width="2" stroke-miterlimit="10" stroke-linecap="round" stroke-linejoin="round" />
      <path id="Vector_41" d="M743.794 551.639C736.966 548.402 730.303 544.799 723.133 542.359C717.899 540.576 712.74 538.414 707.354 537.327C702.068 536.252 696.517 535.266 691.144 536.29C687.527 536.986 683.835 536.948 680.219 538.06C677.779 538.806 674.921 538.579 672.253 538.971C671.406 539.097 670.546 539.034 669.927 539.767" stroke="white" stroke-opacity="0.5" stroke-width="2" stroke-miterlimit="10" stroke-linecap="round" stroke-linejoin="round" />
      <path id="Vector_42" d="M812.503 561.969C812.87 562.474 812.882 563.056 813.489 563.574C817.864 567.304 819.065 572.21 818.18 577.722C817.535 581.705 817.801 582.982 821.076 584.588C822.757 585.409 822.884 586.332 822.846 587.786C822.555 599.848 822.302 611.91 821.354 623.946C820.962 628.915 821.278 633.934 820.76 638.916C820.608 640.433 820.76 642.115 818.686 642.532" stroke="white" stroke-opacity="0.5" stroke-width="2" stroke-miterlimit="10" stroke-linecap="round" stroke-linejoin="round" />
      <path id="Vector_43" d="M151.098 230.652C150.63 227.504 147.646 224.95 143.865 224.179C138.175 223.003 132.776 223.989 127.617 226.328C125.443 227.314 123.571 228.92 122.421 231.171C120.979 234.003 122.585 237.947 126.328 239.098C133.383 241.273 140.426 241.02 146.95 237.088C149.214 235.722 150.959 233.813 151.098 230.918" stroke="white" stroke-opacity="0.5" stroke-width="2" stroke-miterlimit="10" stroke-linecap="round" stroke-linejoin="round" />
      <path id="Vector_44" d="M166.853 171.772C166.17 171.001 165.335 170.305 164.804 169.433C161.593 164.186 155.839 164.692 151.907 167.941C148.531 170.723 146.015 174.326 143.6 177.967C141.134 181.684 138.605 185.364 136.115 189.081C130.146 197.994 124.267 206.958 118.817 216.201C118.628 216.529 118.628 216.972 118.552 217.351" stroke="white" stroke-opacity="0.5" stroke-width="2" stroke-miterlimit="10" stroke-linecap="round" stroke-linejoin="round" />
      <path id="Vector_45" d="M705.065 527.883C708.251 528.566 711.463 529.172 714.611 529.982C716.065 530.361 716.483 532.08 718.202 532.649C723.361 534.356 728.469 536.404 733.401 538.63C738.496 540.931 743.554 543.434 748.485 546.152C752.038 548.112 755.591 550.16 759.814 550.628C765.277 551.222 770.549 550.565 775.544 548.453C778.186 547.341 781.132 546.734 783.32 544.648" stroke="white" stroke-opacity="0.5" stroke-width="2" stroke-miterlimit="10" stroke-linecap="round" stroke-linejoin="round" />
      <path id="Vector_46" d="M655.222 851.197C656.132 849.389 656.575 847.656 656.094 845.494C655.525 842.865 656.916 840.323 657.561 837.769C658.345 834.621 659.116 831.473 660.355 828.451C660.646 827.743 660.456 826.833 659.609 826.416C658.775 826.011 657.801 825.923 657.055 826.428C655.323 827.604 654.324 829.362 653.679 831.309C651.947 836.556 650.291 841.828 648.495 847.05C646.763 852.069 644.879 857.038 643.109 862.044C642.818 862.866 642.742 863.764 642.578 864.624" stroke="white" stroke-opacity="0.5" stroke-width="2" stroke-miterlimit="10" stroke-linecap="round" stroke-linejoin="round" />
      <path id="Vector_47" d="M801.654 573.84C796.192 577.57 790.35 580.642 784.622 583.929C778.325 587.533 771.738 590.554 765.213 593.677C758.929 596.686 752.885 600.214 746.386 602.768" stroke="white" stroke-opacity="0.5" stroke-width="2" stroke-miterlimit="10" stroke-linecap="round" stroke-linejoin="round" />
      <path id="Vector_48" d="M66.9129 281.009C66.091 279.833 66.0657 278.202 64.599 277.38C61.3621 275.547 57.3665 276.609 56.4941 280.149C56.1274 281.629 56.8102 283.601 56.5952 285.409C55.1917 297.079 54.4837 308.799 53.6871 320.519C53.4848 323.528 53.2192 326.537 53.2192 329.559" stroke="white" stroke-opacity="0.5" stroke-width="2" stroke-miterlimit="10" stroke-linecap="round" stroke-linejoin="round" />
      <path id="Vector_49" d="M70.7818 478.814C72.6532 484.706 73.1336 490.687 71.2623 496.616C68.6955 504.758 63.5873 510.536 55.3053 513.482C50.6523 515.139 46.0118 514.506 41.3335 514.443" stroke="white" stroke-opacity="0.5" stroke-width="2" stroke-miterlimit="10" stroke-linecap="round" stroke-linejoin="round" />
      <path id="Vector_50" d="M730.113 815.303C730.607 814.506 731.277 813.962 730.973 812.698C730.505 810.738 731.909 808.968 732.326 807.072C732.743 805.099 733.148 803.013 733.995 801.104C734.589 799.777 734.071 798.626 732.933 798.07C732.035 797.64 731.188 798.323 730.341 798.993C728.154 800.7 728.229 803.329 727.635 805.529C725.751 812.647 723.437 819.627 721.262 826.656C720.921 827.769 720.504 829.273 719.012 829.779C717.57 830.26 718.607 831.309 718.493 832.105" stroke="white" stroke-opacity="0.5" stroke-width="2" stroke-miterlimit="10" stroke-linecap="round" stroke-linejoin="round" />
      <path id="Vector_51" d="M838.322 561.968C836.4 562.335 836.969 560.539 836.856 559.882C835.806 553.927 832.835 549.236 827.992 545.696C822.669 541.802 817.308 537.971 811.984 534.064C807.824 531.005 803.804 527.755 799.53 524.847C798.088 523.861 797.203 522.192 795.446 521.674" stroke="white" stroke-opacity="0.5" stroke-width="2" stroke-miterlimit="10" stroke-linecap="round" stroke-linejoin="round" />
      <path id="Vector_52" d="M61.2231 472.871C63.4864 475.514 65.8509 478.042 66.6854 481.646C67.5452 485.337 68.6453 488.688 67.6337 492.81C66.3061 498.208 64.0301 502.659 59.9081 506.161C56.1528 509.334 51.9044 511.458 46.7582 511.117C45.9869 511.066 45.2156 511.269 44.4316 511.357" stroke="white" stroke-opacity="0.5" stroke-width="2" stroke-miterlimit="10" stroke-linecap="round" stroke-linejoin="round" />
      <path id="Vector_53" d="M745.868 684.115C739.685 687.175 733.401 689.994 727.205 693.016C717.861 697.58 708.492 702.069 699.375 707.088C698.541 707.556 697.441 707.505 696.796 708.39" stroke="white" stroke-opacity="0.5" stroke-width="2" stroke-miterlimit="10" stroke-linecap="round" stroke-linejoin="round" />
      <path id="Vector_54" d="M787.708 588.305C783.409 590.366 779.097 592.439 774.798 594.5C772.471 595.612 770.132 596.7 767.831 597.876C766.857 598.381 766.301 598.925 766.427 600.442C766.933 606.296 765.922 612.137 765.732 617.991C765.606 621.898 765.795 625.704 766.276 629.648C767.06 636.008 770.954 639.472 775.278 643.075C776.72 644.276 777.883 645.806 779.173 647.184" stroke="white" stroke-opacity="0.5" stroke-width="2" stroke-miterlimit="10" stroke-linecap="round" stroke-linejoin="round" />
      <path id="Vector_55" d="M166.853 241.234C169.091 241.753 171.341 242.233 173.567 242.802C174.768 243.106 175.817 243.599 176.424 244.85C179.497 251.134 181.14 257.797 181.861 264.738C182.127 267.33 182.885 269.859 183.201 272.476C183.619 275.965 184.668 279.367 185.439 282.818" stroke="white" stroke-opacity="0.5" stroke-width="2" stroke-miterlimit="10" stroke-linecap="round" stroke-linejoin="round" />
      <path id="Vector_56" d="M808.494 482.177C800.617 479.863 792.765 479.054 784.85 482.152C782.194 483.188 779.678 484.263 777.314 485.97C773.723 488.562 771.763 491.735 771.118 496.11C770.094 502.975 770.271 509.904 769.588 516.769C768.678 525.961 769.348 535.215 768.362 544.407C768.311 544.824 768.121 545.343 768.602 545.697" stroke="white" stroke-opacity="0.5" stroke-width="2" stroke-miterlimit="10" stroke-linecap="round" stroke-linejoin="round" />
      <path id="Vector_57" d="M625.002 525.81C621.525 525.001 618.073 524.04 614.634 523.129C611.549 522.32 608.325 521.663 605.113 521.182C597.236 519.994 589.282 520.436 581.354 520.386C580.71 520.386 580.014 520.272 579.546 520.904" stroke="white" stroke-opacity="0.5" stroke-width="2" stroke-miterlimit="10" stroke-linecap="round" stroke-linejoin="round" />
      <path id="Vector_58" d="M423.82 829.5C426.235 832.168 428.296 835.303 431.116 837.415C438.235 842.712 443.115 850.273 450.158 855.583C455.089 859.313 460.476 862.297 466.204 864.534C469.731 865.913 473.575 866.507 477.28 867.455" stroke="white" stroke-opacity="0.5" stroke-width="2" stroke-miterlimit="10" stroke-linecap="round" stroke-linejoin="round" />
      <path id="Vector_59" d="M777.377 781.722C779.046 780.116 779.59 777.803 781.006 776.045C782.448 774.25 783.661 771.898 786.785 773.327C787.745 777.891 786.051 782.051 784.079 786.109C781.411 791.584 777.934 796.578 774.532 801.597C773.521 803.102 773.47 804.505 774.355 806.174C776.922 804.758 777.668 802.091 779.198 800.068C779.691 799.41 779.679 798.424 780.488 798.007C781.12 797.678 781.74 797.084 782.536 797.488C783.383 797.918 783.333 798.74 783.32 799.549C783.307 800.776 782.169 801.496 782.018 802.647" stroke="white" stroke-opacity="0.5" stroke-width="2" stroke-miterlimit="10" stroke-linecap="round" stroke-linejoin="round" />
      <path id="Vector_60" d="M704.028 527.098C702.827 526.403 701.487 526.377 700.159 526.314C694.621 526.036 689.108 526.466 683.633 527.161C679.84 527.642 676.034 528.324 672.291 529.058C668.587 529.791 664.844 530.373 661.152 531.232C660.305 531.435 659.622 531.852 659.091 532.535" stroke="white" stroke-opacity="0.5" stroke-width="2" stroke-miterlimit="10" stroke-linecap="round" stroke-linejoin="round" />
      <path id="Vector_61" d="M679.752 565.585C674.1 557.594 667.095 551.058 659.142 545.381C653.199 541.145 646.712 538.048 640.213 534.912C639.543 534.596 638.62 533.736 637.659 534.596" stroke="white" stroke-opacity="0.5" stroke-width="2" stroke-miterlimit="10" stroke-linecap="round" stroke-linejoin="round" />
      <path id="Vector_62" d="M542.36 723.359C536.253 725.142 531.233 728.771 526.34 732.652C519.588 738 515.01 745.106 510.699 752.35C509.7 754.045 509.245 756.257 508.524 758.23" stroke="white" stroke-opacity="0.5" stroke-width="2" stroke-miterlimit="10" stroke-linecap="round" stroke-linejoin="round" />
      <path id="Vector_63" d="M75.6881 341.18C73.9558 342.671 73.6903 345.086 71.8695 346.667C67.482 350.498 62.6519 352.925 56.8609 353.975C54.3447 354.43 51.8791 354.771 49.3502 354.872C43.7362 355.1 38.9188 352.976 34.6956 349.613C32.9128 348.184 33.0772 345.731 33.5829 343.493C34.6577 338.777 37.8187 335.857 41.8649 333.695C43.1672 332.999 44.4316 332.178 45.9869 332.127" stroke="white" stroke-opacity="0.5" stroke-width="2" stroke-miterlimit="10" stroke-linecap="round" stroke-linejoin="round" />
      <path id="Vector_64" d="M656.764 847.062C658.825 846.72 658.699 844.761 659.318 843.433C662.492 836.72 665.185 829.766 668.877 823.292C669.585 822.041 670.635 821.219 671.773 820.524C672.051 820.359 672.721 819.765 673.303 820.448C673.771 821.004 674.188 821.345 673.846 822.281C672.772 825.252 672.051 828.35 670.926 831.296C669.181 835.86 667.828 840.538 666.488 845.229C665.147 849.919 664.148 854.597 663.63 859.44C663.453 861.096 663.845 862.31 665.059 862.689C665.982 862.967 667.095 862.373 667.967 861.083C669.952 858.188 670.306 854.825 671.469 851.715" stroke="white" stroke-opacity="0.5" stroke-width="2" stroke-miterlimit="10" stroke-linecap="round" stroke-linejoin="round" />
      <path id="Vector_65" d="M773.242 778.105C768.969 781.494 766.579 786.172 764.48 791.027C762.672 795.212 761.433 799.877 759.043 803.506C756.287 807.691 755.819 812.799 752.607 816.604C752.468 816.769 752.746 817.274 752.835 817.616" stroke="white" stroke-opacity="0.5" stroke-width="2" stroke-miterlimit="10" stroke-linecap="round" stroke-linejoin="round" />
      <path id="Vector_66" d="M565.726 822.533C563.463 822.875 562.16 824.746 560.479 825.947C554.005 830.562 547.43 834.974 540.311 838.59C536.708 840.423 533.117 842.282 529.475 844.039C528.438 844.545 527.123 844.216 526.339 845.253" stroke="white" stroke-opacity="0.5" stroke-width="2" stroke-miterlimit="10" stroke-linecap="round" stroke-linejoin="round" />
      <path id="Vector_67" d="M550.11 413.473C558.152 419.605 566.194 425.724 573.919 432.273C578.572 436.218 583.162 440.264 587.815 444.208" stroke="white" stroke-opacity="0.5" stroke-width="2" stroke-miterlimit="10" stroke-linecap="round" stroke-linejoin="round" />
      <path id="Vector_68" d="M67.1655 281.516C66.7609 287.572 65.8758 293.577 65.2436 299.608C64.8516 303.363 64.5229 307.169 64.3206 310.949C63.9918 317.144 63.6378 323.34 63.2964 329.547" stroke="white" stroke-opacity="0.5" stroke-width="2" stroke-miterlimit="10" stroke-linecap="round" stroke-linejoin="round" />
      <path id="Vector_69" d="M874.485 541.828C871.058 542.726 868.226 544.837 865.217 546.519C856.366 551.462 847.629 556.633 838.854 561.703" stroke="white" stroke-opacity="0.5" stroke-width="2" stroke-miterlimit="10" stroke-linecap="round" stroke-linejoin="round" />
      <path id="Vector_70" d="M751.027 544.406C747.499 542.598 744.009 540.702 740.431 539.008C735.74 536.77 731.087 534.317 726.181 532.686C723.652 531.839 721.035 531.08 718.493 530.183C717.495 529.829 716.736 530.082 715.901 530.474" stroke="white" stroke-opacity="0.5" stroke-width="2" stroke-miterlimit="10" stroke-linecap="round" stroke-linejoin="round" />
      <path id="Vector_71" d="M94.5405 309.926C90.1403 312.214 85.3861 313.377 80.6319 314.705C77.2685 315.641 73.804 316.336 70.5039 317.613C68.6705 318.321 66.5716 318.371 64.5864 318.713" stroke="white" stroke-opacity="0.5" stroke-width="2" stroke-miterlimit="10" stroke-linecap="round" stroke-linejoin="round" />
      <path id="Vector_72" d="M500.267 518.07C500.09 518.5 499.787 518.93 499.774 519.36C499.585 527.464 499.294 535.556 498.497 543.635C498.358 545.102 498.94 546.417 499.686 547.807C502.088 552.308 505.692 555.242 510.345 557.062" stroke="white" stroke-opacity="0.5" stroke-width="2" stroke-miterlimit="10" stroke-linecap="round" stroke-linejoin="round" />
      <path id="Vector_73" d="M817.661 571.779C808.469 577.456 798.91 582.463 789.25 587.267" stroke="white" stroke-opacity="0.5" stroke-width="2" stroke-miterlimit="10" stroke-linecap="round" stroke-linejoin="round" />
      <path id="Vector_74" d="M525.834 845.506C522.458 846.378 519.158 847.516 515.782 848.414C511.179 849.64 506.564 850.563 501.822 850.639C497.346 850.715 492.832 850.804 488.407 850.336C483.653 849.83 479.151 848.098 474.688 846.341C472.501 845.481 470.806 843.774 468.518 843.18" stroke="white" stroke-opacity="0.5" stroke-width="2" stroke-miterlimit="10" stroke-linecap="round" stroke-linejoin="round" />
      <path id="Vector_75" d="M768.071 557.834C767.894 561.968 767.78 566.103 767.54 570.224C767.262 575.042 767.679 579.897 766.819 584.688C766.718 585.245 767.123 585.889 767.3 586.484" stroke="white" stroke-opacity="0.5" stroke-width="2" stroke-miterlimit="10" stroke-linecap="round" stroke-linejoin="round" />
      <path id="Vector_76" d="M273.253 818.652C274.29 822.913 276.44 826.693 278.438 830.524C280.966 835.379 284.456 839.552 287.959 843.711C288.705 844.596 289.577 845.481 289.514 846.796" stroke="white" stroke-opacity="0.5" stroke-width="2" stroke-miterlimit="10" stroke-linecap="round" stroke-linejoin="round" />
      <path id="Vector_77" d="M718.228 829.5C716.42 827.3 715.522 825.1 717.671 822.496C718.443 821.56 718.291 820.359 717.203 819.424C715.964 818.362 715.18 819.398 714.371 819.98C712.98 820.979 712.437 822.686 711.855 824.127C709.933 828.83 707.354 833.167 704.825 837.529C703.952 839.021 703.13 840.576 702.524 842.181C701.98 843.61 701.234 844.596 699.641 844.761C699.552 844.773 699.438 844.912 699.388 845.014C699.363 845.077 699.464 845.178 699.502 845.266" stroke="white" stroke-opacity="0.5" stroke-width="2" stroke-miterlimit="10" stroke-linecap="round" stroke-linejoin="round" />
      <path id="Vector_78" d="M620.615 528.654C620.931 529.855 621.437 530.816 622.36 531.815C625.685 535.431 627.923 539.856 630.654 543.915C632.905 547.24 634.751 550.818 636.938 554.181C637.419 554.927 637.887 556.115 639.214 556.027" stroke="white" stroke-opacity="0.5" stroke-width="2" stroke-miterlimit="10" stroke-linecap="round" stroke-linejoin="round" />
      <path id="Vector_79" d="M699.514 844.737C698.958 842.802 699.919 841.184 700.703 839.591C701.702 837.555 702.941 835.633 704.028 833.636C705.609 830.715 704.951 829.565 701.146 828.945C701.361 827.959 701.196 826.973 701.373 825.885C701.613 824.394 701.31 822.813 699.641 822.029C698.25 821.372 697.175 821.928 695.999 822.775C692.472 825.329 691.7 829.716 693.458 833.648C694.482 835.95 693.9 837.656 691.372 839.072" stroke="white" stroke-opacity="0.5" stroke-width="2" stroke-miterlimit="10" stroke-linecap="round" stroke-linejoin="round" />
      <path id="Vector_80" d="M806.813 632.467C800.782 635.83 794.776 639.193 788.732 642.531C785.76 644.162 782.814 645.818 779.767 647.335C776.062 649.169 772.395 651.28 769.095 653.897C767.072 655.503 767.414 657.766 767.363 659.852C767.338 660.965 767.983 662.09 768.337 663.203" stroke="white" stroke-opacity="0.5" stroke-width="2" stroke-miterlimit="10" stroke-linecap="round" stroke-linejoin="round" />
      <path id="Vector_81" d="M570.253 734.473C568.217 728.493 564.449 724.51 558.139 722.766C554.22 721.678 550.401 721.767 546.494 722.083" stroke="white" stroke-opacity="0.5" stroke-width="2" stroke-miterlimit="10" stroke-linecap="round" stroke-linejoin="round" />
      <path id="Vector_82" d="M707.392 607.928C707.24 609.862 708.972 611.948 711.514 613.111C713.752 614.136 716.091 613.68 718.215 613.251C721.224 612.631 724.069 611.228 727.028 610.279C729 609.647 730.783 608.396 732.958 608.446" stroke="white" stroke-opacity="0.5" stroke-width="2" stroke-miterlimit="10" stroke-linecap="round" stroke-linejoin="round" />
      <path id="Vector_83" d="M642.299 865.143C640.504 869.403 638.911 873.765 635.092 876.8C634.194 877.508 633.347 877.862 632.247 878.14C631.071 878.443 630.502 878.026 629.908 877.28C629.2 876.395 629.971 875.801 630.439 875.232C631.362 874.107 632.184 872.817 633.537 872.134C634.65 871.565 634.751 870.845 634.321 869.783C633.752 868.405 632.31 868.025 631.526 868.582C628.593 870.642 625.318 872.539 624.509 876.509C624.041 878.81 624.231 880.972 626.051 882.704" stroke="white" stroke-opacity="0.5" stroke-width="2" stroke-miterlimit="10" stroke-linecap="round" stroke-linejoin="round" />
      <path id="Vector_84" d="M685.947 850.413C687.97 847.796 688.539 844.484 690.094 841.639C690.866 840.235 691.131 838.807 691.131 837.239C691.131 835.848 689.993 834.685 688.792 835.191C687.237 835.848 686.25 837.441 684.847 838.149C683.671 838.744 682.128 838.339 680.738 839.237C676.224 842.145 673.96 846.62 671.735 851.172" stroke="white" stroke-opacity="0.5" stroke-width="2" stroke-miterlimit="10" stroke-linecap="round" stroke-linejoin="round" />
      <path id="Vector_85" d="M809.911 635.047C807.533 635.034 806.054 636.88 804.271 637.955C797.671 641.963 790.666 645.237 784.078 649.233C783.952 649.309 783.737 649.245 783.573 649.245" stroke="white" stroke-opacity="0.5" stroke-width="2" stroke-miterlimit="10" stroke-linecap="round" stroke-linejoin="round" />
      <path id="Vector_86" d="M751.545 544.661C756.451 548.277 761.85 547.468 767.3 546.481C771.409 545.735 775.114 543.902 778.92 542.334C779.893 541.93 780.892 541.892 781.752 542.372C787.417 545.508 792.765 549.086 797.785 553.182C799.074 554.232 800.453 555.231 801.919 556.002C803.399 556.773 803.765 557.835 803.74 559.403C803.702 561.982 803.487 564.574 803.968 567.153" stroke="white" stroke-opacity="0.5" stroke-width="2" stroke-miterlimit="10" stroke-linecap="round" stroke-linejoin="round" />
      <path id="Vector_87" d="M770.916 500.762C771.637 500.951 772.105 501.356 772.484 502.039C774.355 505.389 776.947 507.93 780.159 510.13C785.267 513.633 790.021 517.628 794.927 521.421" stroke="white" stroke-opacity="0.5" stroke-width="2" stroke-miterlimit="10" stroke-linecap="round" stroke-linejoin="round" />
      <path id="Vector_88" d="M774.532 662.938C776.037 664.518 778.174 663.974 779.982 664.391C786.051 665.77 790.767 669.145 794.94 673.532C796.28 674.936 798.013 676.124 797.785 678.438" stroke="white" stroke-opacity="0.5" stroke-width="2" stroke-miterlimit="10" stroke-linecap="round" stroke-linejoin="round" />
      <path id="Vector_89" d="M717.456 839.312C714.725 841.007 712.867 843.889 709.718 845.002C709.25 845.166 708.732 845.824 708.441 845.71C704.142 844.117 702.802 848.352 700.21 849.958C696.707 852.133 695.734 852.322 692.421 849.629" stroke="white" stroke-opacity="0.5" stroke-width="2" stroke-miterlimit="10" stroke-linecap="round" stroke-linejoin="round" />
      <path id="Vector_90" d="M830.053 475.197C835.06 478.839 839.523 483.137 844.341 486.968C847.654 489.598 849.575 493.151 851.244 496.501C853.331 500.699 852.408 505.857 852.142 510.573C852.054 512.052 852.281 512.937 853.305 513.671C857.668 516.806 861.979 520.03 866.506 522.913C868.82 524.38 869.604 526.883 871.361 528.666C872.967 530.297 873.814 532.307 873.953 534.595" stroke="white" stroke-opacity="0.5" stroke-width="2" stroke-miterlimit="10" stroke-linecap="round" stroke-linejoin="round" />
      <path id="Vector_91" d="M833.164 498.955C827.562 494.733 822.037 490.434 816.347 486.35C814.046 484.706 811.39 483.556 808.887 482.178" stroke="white" stroke-opacity="0.5" stroke-width="2" stroke-miterlimit="10" stroke-linecap="round" stroke-linejoin="round" />
      <path id="Vector_92" d="M742.77 822.269C743.453 822.206 744.035 821.978 744.591 821.511C747.208 819.247 747.98 816.049 748.928 812.964C749.168 812.192 749.194 811.181 747.954 810.549C744.882 813.33 742.998 816.807 742.189 820.967C742.012 821.865 742.985 822.067 742.758 822.788" stroke="white" stroke-opacity="0.5" stroke-width="2" stroke-miterlimit="10" stroke-linecap="round" stroke-linejoin="round" />
      <path id="Vector_93" d="M704.547 528.135C703.801 529.121 702.713 528.957 701.702 528.893C697.289 528.666 692.889 528.982 688.539 529.5C686.137 529.791 683.76 530.486 681.294 530.448" stroke="white" stroke-opacity="0.5" stroke-width="2" stroke-miterlimit="10" stroke-linecap="round" stroke-linejoin="round" />
      <path id="Vector_94" d="M646.434 867.721C644.474 869.959 643.197 872.74 641.958 875.294C639.821 879.707 636.041 881.666 632.184 883.639C630.958 884.271 629.137 883.74 627.582 883.74" stroke="white" stroke-opacity="0.5" stroke-width="2" stroke-miterlimit="10" stroke-linecap="round" stroke-linejoin="round" />
      <path id="Vector_95" d="M788.226 546.734C787.784 549.794 785.685 551.273 783.08 552.449C778.477 554.523 773.66 555.863 768.843 557.279C767.73 557.608 766.44 557.228 765.239 557.342C758.07 558.037 751.482 556.381 745.35 552.677" stroke="white" stroke-opacity="0.5" stroke-width="2" stroke-miterlimit="10" stroke-linecap="round" stroke-linejoin="round" />
      <path id="Vector_96" d="M640.238 700.387C640.997 701.727 640.542 703.118 640.58 704.521C640.731 710.451 639.884 716.267 638.974 722.083C638.835 722.993 639.113 723.966 639.201 724.915" stroke="white" stroke-opacity="0.5" stroke-width="2" stroke-miterlimit="10" stroke-linecap="round" stroke-linejoin="round" />
      <path id="Vector_97" d="M776.859 782.113C775.683 786.222 773.773 790.041 771.902 793.834C770.549 796.59 769.133 799.409 768.033 802.203C767.135 804.492 766.819 806.995 765.289 809.119C764.556 810.131 764.126 811.294 762.672 811.446C762.002 808.588 764.037 804.96 767.312 803.152" stroke="white" stroke-opacity="0.5" stroke-width="2" stroke-miterlimit="10" stroke-linecap="round" stroke-linejoin="round" />
      <path id="Vector_98" d="M696.277 708.643C689.563 712.259 682.849 715.875 676.135 719.491" stroke="white" stroke-opacity="0.5" stroke-width="2" stroke-miterlimit="10" stroke-linecap="round" stroke-linejoin="round" />
      <path id="Vector_99" d="M768.071 812.205C765.745 814.102 764.468 816.972 761.913 818.716C760.636 819.589 759.258 820.031 758.032 819.614C756.35 819.032 755.427 819.424 754.352 820.701C752.81 822.522 750.951 824.039 748.675 825.341C747.6 824.456 746.462 824.558 745.324 825.872C743.377 828.123 741.227 829.956 737.839 829.021C736.739 828.717 735.993 829.817 735.576 830.563C734.564 832.422 732.844 833.206 731.163 834.204C729.848 834.976 729.026 834.963 728.292 833.635" stroke="white" stroke-opacity="0.5" stroke-width="2" stroke-miterlimit="10" stroke-linecap="round" stroke-linejoin="round" />
      <path id="Vector_100" d="M874.219 535.115C875.521 536.354 875.155 538.112 875.167 539.502C875.18 547.076 875.332 554.7 874.51 562.197C874.219 564.814 874.801 567.71 873.448 570.226" stroke="white" stroke-opacity="0.5" stroke-width="2" stroke-miterlimit="10" stroke-linecap="round" stroke-linejoin="round" />
      <path id="Vector_101" d="M884.031 568.164C879.618 571.477 874.611 573.765 869.87 576.496C868.352 577.368 866.418 577.811 865.444 579.53" stroke="white" stroke-opacity="0.5" stroke-width="2" stroke-miterlimit="10" stroke-linecap="round" stroke-linejoin="round" />
      <path id="Vector_102" d="M833.669 499.221C839.081 503.406 844.48 507.603 850.195 511.371C850.625 511.662 850.928 512.243 851.497 511.611" stroke="white" stroke-opacity="0.5" stroke-width="2" stroke-miterlimit="10" stroke-linecap="round" stroke-linejoin="round" />
      <path id="Vector_103" d="M814.045 640.988C812.073 641.039 810.669 642.468 809.19 643.403C802.944 647.335 796.356 650.66 789.933 654.264C785.533 656.729 780.854 658.815 776.328 661.116C775.885 661.344 775.304 661.306 774.785 661.395" stroke="white" stroke-opacity="0.5" stroke-width="2" stroke-miterlimit="10" stroke-linecap="round" stroke-linejoin="round" />
      <path id="Vector_104" d="M43.4072 490.434C41.6243 491.23 41.3209 493.076 40.9289 494.593C40.6001 495.832 40.0312 496.793 39.2599 497.653C36.7184 500.46 35.4792 500.434 32.5205 497.628C33.2412 496.072 33.747 494.138 36.1747 495.605" stroke="white" stroke-opacity="0.5" stroke-width="2" stroke-miterlimit="10" stroke-linecap="round" stroke-linejoin="round" />
      <path id="Vector_105" d="M762.912 677.654C758.006 678.994 753.277 680.866 748.738 683.129C747.941 683.521 747.145 683.533 746.386 683.85" stroke="white" stroke-opacity="0.5" stroke-width="2" stroke-miterlimit="10" stroke-linecap="round" stroke-linejoin="round" />
      <path id="Vector_106" d="M458.162 746.863C456.695 750.479 455.165 754.07 453.8 757.724C453.104 759.582 452.207 761.39 451.966 763.401" stroke="white" stroke-opacity="0.5" stroke-width="2" stroke-miterlimit="10" stroke-linecap="round" stroke-linejoin="round" />
      <path id="Vector_107" d="M47.2763 476.234C45.8348 480.533 44.3808 484.819 44.3555 489.763C44.8865 490.18 45.6957 490.825 46.505 491.47" stroke="white" stroke-opacity="0.5" stroke-width="2" stroke-miterlimit="10" stroke-linecap="round" stroke-linejoin="round" />
      <path id="Vector_108" d="M781.765 803.164C779.615 806.059 777.807 809.22 774.811 811.445C772.484 813.178 770.322 813.62 768.084 811.42" stroke="white" stroke-opacity="0.5" stroke-width="2" stroke-miterlimit="10" stroke-linecap="round" stroke-linejoin="round" />
      <path id="Vector_109" d="M682.078 842.928C682.293 843.433 681.585 844.167 682.584 844.508C683.19 844.723 683.329 845.57 683.077 846C681.041 849.578 680.434 854.079 676.325 856.355C675.528 855.925 674.896 855.369 675.111 854.281" stroke="white" stroke-opacity="0.5" stroke-width="2" stroke-miterlimit="10" stroke-linecap="round" stroke-linejoin="round" />
      <path id="Vector_110" d="M757.488 804.189C756.097 802.381 754.845 802.065 753.378 803.443C752.215 804.53 751.09 804.72 749.497 804.897C747.347 805.137 745.362 806.755 743.769 808.551C741.493 811.155 739.862 814.19 737.839 816.946C737.763 817.06 737.51 817.034 737.333 817.085" stroke="white" stroke-opacity="0.5" stroke-width="2" stroke-miterlimit="10" stroke-linecap="round" stroke-linejoin="round" />
      <path id="Vector_111" d="M588.334 444.463C592.127 447.99 595.921 451.505 599.688 455.058C600.409 455.741 601.117 456.487 600.991 457.637" stroke="white" stroke-opacity="0.5" stroke-width="2" stroke-miterlimit="10" stroke-linecap="round" stroke-linejoin="round" />
      <path id="Vector_112" d="M726.497 828.982C724.461 830.866 724.6 833.648 723.753 835.987C723.096 837.795 721.895 838.844 720.516 839.755C720.049 840.071 718.961 840.146 718.24 839.565C717.482 838.958 717.962 838.364 718.24 837.757" stroke="white" stroke-opacity="0.5" stroke-width="2" stroke-miterlimit="10" stroke-linecap="round" stroke-linejoin="round" />
      <path id="Vector_113" d="M656.246 863.587C654.159 865.989 653.729 869.213 652.111 871.843C651.087 873.512 650.24 875.206 648.002 875.788C646.206 876.243 646.206 875.433 646.168 874.169C646.118 872.627 647.584 871.704 647.534 870.035C647.407 865.66 649.076 861.576 650.05 857.379" stroke="white" stroke-opacity="0.5" stroke-width="2" stroke-miterlimit="10" stroke-linecap="round" stroke-linejoin="round" />
      <path id="Vector_114" d="M56.8353 477.524C54.3444 477.474 54.5341 479.926 53.7122 481.203C52.2581 483.467 51.4868 486.147 50.3615 488.612C49.9443 489.523 49.8304 490.357 50.3868 491.204C51.0064 492.152 51.2972 493.227 51.1328 494.302C50.8167 496.325 51.8029 497.627 53.5099 498.107C55.0272 498.537 56.1273 497.45 56.8606 496.11C56.9744 495.908 57.202 495.756 57.3664 495.591" stroke="white" stroke-opacity="0.5" stroke-width="2" stroke-miterlimit="10" stroke-linecap="round" stroke-linejoin="round" />
      <path id="Vector_115" d="M693.951 843.965C692.623 850.173 688.792 854.712 684.113 858.656C683.721 858.985 682.887 859.061 682.343 858.909C680.042 858.29 678.639 859.832 677.197 861.046C675.503 862.487 674.226 864.422 671.457 863.145C670.432 862.664 669.37 863.79 668.966 864.662C668.258 866.179 666.905 866.925 665.805 867.987" stroke="white" stroke-opacity="0.5" stroke-width="2" stroke-miterlimit="10" stroke-linecap="round" stroke-linejoin="round" />
      <path id="Vector_116" d="M640.491 531.232C638.114 531.017 636.066 529.715 633.79 529.134C631.893 528.653 630.212 527.338 628.1 527.616" stroke="white" stroke-opacity="0.5" stroke-width="2" stroke-miterlimit="10" stroke-linecap="round" stroke-linejoin="round" />
      <path id="Vector_117" d="M674.593 720.527C670.407 722.765 666.134 724.826 662.201 727.494" stroke="white" stroke-opacity="0.5" stroke-width="2" stroke-miterlimit="10" stroke-linecap="round" stroke-linejoin="round" />
      <path id="Vector_118" d="M745.868 603.021C741.733 604.741 737.599 606.46 733.477 608.18" stroke="white" stroke-opacity="0.5" stroke-width="2" stroke-miterlimit="10" stroke-linecap="round" stroke-linejoin="round" />
      <path id="Vector_119" d="M771.181 786.627C769.297 788.599 769.108 791.444 767.578 793.606C766.68 794.87 766.642 796.716 764.986 797.475" stroke="white" stroke-opacity="0.5" stroke-width="2" stroke-miterlimit="10" stroke-linecap="round" stroke-linejoin="round" />
      <path id="Vector_120" d="M711.779 834.924C710.034 835.139 709.44 836.732 708.479 837.82C708.138 838.212 708.176 839.501 708.96 839.754C709.503 839.931 710.338 840.171 711.033 839.35C712.601 837.542 712.702 835.696 711.767 833.635" stroke="white" stroke-opacity="0.5" stroke-width="2" stroke-miterlimit="10" stroke-linecap="round" stroke-linejoin="round" />
      <path id="Vector_121" d="M781.512 780.951C780.577 784.618 778.326 787.728 777.087 791.268C776.948 791.66 776.581 792.318 775.835 792.052" stroke="white" stroke-opacity="0.5" stroke-width="2" stroke-miterlimit="10" stroke-linecap="round" stroke-linejoin="round" />
      <path id="Vector_122" d="M392.058 587.533C388.265 590.201 384.484 592.869 380.691 595.536" stroke="white" stroke-opacity="0.5" stroke-width="2" stroke-miterlimit="10" stroke-linecap="round" stroke-linejoin="round" />
      <path id="Vector_123" d="M563.273 840.348C558.936 842.13 555.598 845.456 551.577 847.744C549.87 846.859 549.023 844.962 547.531 843.686C546.242 842.573 545.129 842.446 543.624 843.407C539.717 845.936 539.603 847.036 543.649 851.183" stroke="white" stroke-opacity="0.5" stroke-width="2" stroke-miterlimit="10" stroke-linecap="round" stroke-linejoin="round" />
      <path id="Vector_124" d="M564.575 773.199C563.614 775.892 564.537 778.434 567.724 780.065C569.001 780.722 569.722 781.733 570.771 782.492" stroke="white" stroke-opacity="0.5" stroke-width="2" stroke-miterlimit="10" stroke-linecap="round" stroke-linejoin="round" />
      <path id="Vector_125" d="M544.168 852.221C547.241 853.624 548.859 856.658 551.388 858.694C552.488 859.579 553.335 860.793 554.764 861.261" stroke="white" stroke-opacity="0.5" stroke-width="2" stroke-miterlimit="10" stroke-linecap="round" stroke-linejoin="round" />
      <path id="Vector_126" d="M814.564 641.242C816.41 643.303 815.651 645.705 815.259 647.943C815.057 649.068 811.213 649.827 810.214 648.955C809.064 647.968 807.42 647.488 806.826 645.895" stroke="white" stroke-opacity="0.5" stroke-width="2" stroke-miterlimit="10" stroke-linecap="round" stroke-linejoin="round" />
      <path id="Vector_127" d="M402.907 580.301C399.468 582.627 396.016 584.953 392.577 587.267" stroke="white" stroke-opacity="0.5" stroke-width="2" stroke-miterlimit="10" stroke-linecap="round" stroke-linejoin="round" />
      <path id="Vector_128" d="M874.99 562.222C876.204 561.842 876.9 562.866 877.835 563.246C880.832 564.459 883.108 566.798 885.826 568.429C886.762 568.986 886.813 570.022 886.863 570.996C886.926 571.944 886.686 572.918 887.116 573.841" stroke="white" stroke-opacity="0.5" stroke-width="2" stroke-miterlimit="10" stroke-linecap="round" stroke-linejoin="round" />
      <path id="Vector_129" d="M827.992 476.235C825.83 475.046 823.579 474.06 821.455 472.758C819.874 471.797 817.421 472.543 815.639 473.238C813.818 473.959 812.288 475.489 810.695 476.766C809.228 477.929 809.81 480.078 808.621 481.406" stroke="white" stroke-opacity="0.5" stroke-width="2" stroke-miterlimit="10" stroke-linecap="round" stroke-linejoin="round" />
      <path id="Vector_130" d="M731.403 813.494C731.744 813.494 732.098 813.545 732.44 813.482C735.993 812.887 737.877 814.632 737.03 818.122C736.359 820.853 735.196 823.47 734.248 826.138C734.008 826.795 733.464 826.669 732.958 826.656" stroke="white" stroke-opacity="0.5" stroke-width="2" stroke-miterlimit="10" stroke-linecap="round" stroke-linejoin="round" />
      <path id="Vector_131" d="M634.814 685.404C633.6 685.43 632.437 685.253 631.413 686.403C629.984 688.009 628.972 689.867 628.745 691.878C628.631 692.876 629.491 694.432 631.198 694.444" stroke="white" stroke-opacity="0.5" stroke-width="2" stroke-miterlimit="10" stroke-linecap="round" stroke-linejoin="round" />
      <path id="Vector_132" d="M731.403 820.461C728.482 822.218 727.863 825.367 727.458 828.237C727.256 829.627 726.775 831.638 728.052 833.117" stroke="white" stroke-opacity="0.5" stroke-width="2" stroke-miterlimit="10" stroke-linecap="round" stroke-linejoin="round" />
      <path id="Vector_133" d="M783.054 649.512C780.134 651.231 777.2 652.951 774.279 654.67" stroke="white" stroke-opacity="0.5" stroke-width="2" stroke-miterlimit="10" stroke-linecap="round" stroke-linejoin="round" />
      <path id="Vector_134" d="M689.311 569.453C690.689 572.247 692.51 574.852 693.18 577.975" stroke="white" stroke-opacity="0.5" stroke-width="2" stroke-miterlimit="10" stroke-linecap="round" stroke-linejoin="round" />
      <path id="Vector_135" d="M63.2966 277.646C62.6771 280.466 62.7909 283.323 62.7782 286.168" stroke="white" stroke-opacity="0.5" stroke-width="2" stroke-miterlimit="10" stroke-linecap="round" stroke-linejoin="round" />
      <path id="Vector_136" d="M659.356 854.812C657.991 856.747 657.725 859.086 657.03 861.273C656.84 861.868 656.688 862.474 656.511 863.081" stroke="white" stroke-opacity="0.5" stroke-width="2" stroke-miterlimit="10" stroke-linecap="round" stroke-linejoin="round" />
      <path id="Vector_137" d="M49.6027 490.18C46.7957 490.787 45.6704 492.443 45.9359 495.351C46.075 496.944 45.3416 498.499 44.6968 499.991" stroke="white" stroke-opacity="0.5" stroke-width="2" stroke-miterlimit="10" stroke-linecap="round" stroke-linejoin="round" />
      <path id="Vector_138" d="M681.813 844.482C678.93 845.013 678.437 847.694 677.21 849.679C676.919 850.147 676.843 850.779 676.388 851.196" stroke="white" stroke-opacity="0.5" stroke-width="2" stroke-miterlimit="10" stroke-linecap="round" stroke-linejoin="round" />
      <path id="Vector_139" d="M431.824 832.598C432.659 834.734 433.873 836.681 435.213 838.515C435.719 839.197 434.985 839.577 435.175 840.095" stroke="white" stroke-opacity="0.5" stroke-width="2" stroke-miterlimit="10" stroke-linecap="round" stroke-linejoin="round" />
      <path id="Vector_140" d="M540.299 518.324C540.312 520.676 540.173 523.04 541.07 525.291" stroke="white" stroke-opacity="0.5" stroke-width="2" stroke-miterlimit="10" stroke-linecap="round" stroke-linejoin="round" />
      <path id="Vector_141" d="M447.326 718.455C446.479 720.883 444.418 722.665 443.71 725.169" stroke="white" stroke-opacity="0.5" stroke-width="2" stroke-miterlimit="10" stroke-linecap="round" stroke-linejoin="round" />
      <path id="Vector_142" d="M820.507 472.1C819.735 468.851 817.371 470.646 815.601 470.545" stroke="white" stroke-opacity="0.5" stroke-width="2" stroke-miterlimit="10" stroke-linecap="round" stroke-linejoin="round" />
      <path id="Vector_143" d="M60.1988 471.847C58.378 471.012 56.9366 469.381 54.7744 469.268" stroke="white" stroke-opacity="0.5" stroke-width="2" stroke-miterlimit="10" stroke-linecap="round" stroke-linejoin="round" />
      <path id="Vector_144" d="M652.377 712.006C651.555 713.725 650.619 715.42 651.34 717.43" stroke="white" stroke-opacity="0.5" stroke-width="2" stroke-miterlimit="10" stroke-linecap="round" stroke-linejoin="round" />
      <path id="Vector_145" d="M944.47 161.178C945.848 162.897 947.227 164.617 948.605 166.336" stroke="white" stroke-opacity="0.5" stroke-width="2" stroke-miterlimit="10" stroke-linecap="round" stroke-linejoin="round" />
      <path id="Vector_146" d="M51.6764 330.332C50.1465 331.47 47.9843 330.534 46.5176 331.887" stroke="white" stroke-opacity="0.5" stroke-width="2" stroke-miterlimit="10" stroke-linecap="round" stroke-linejoin="round" />
      <path id="Vector_147" d="M776.593 781.469C775.683 780.23 776.315 777.79 773.749 777.853" stroke="white" stroke-opacity="0.5" stroke-width="2" stroke-miterlimit="10" stroke-linecap="round" stroke-linejoin="round" />
      <path id="Vector_148" d="M646.953 706.316C648.242 707.619 649.975 708.415 651.087 709.932" stroke="white" stroke-opacity="0.5" stroke-width="2" stroke-miterlimit="10" stroke-linecap="round" stroke-linejoin="round" />
      <path id="Vector_149" d="M775.051 539.236C775.215 540.614 774.621 542.094 775.569 543.371" stroke="white" stroke-opacity="0.5" stroke-width="2" stroke-miterlimit="10" stroke-linecap="round" stroke-linejoin="round" />
      <path id="Vector_150" d="M658.054 866.166C657.763 867.822 659.331 868.126 660.115 869.011" stroke="white" stroke-opacity="0.5" stroke-width="2" stroke-miterlimit="10" stroke-linecap="round" stroke-linejoin="round" />
      <path id="Vector_151" d="M545.976 722.336C545.141 723.398 543.801 722.437 542.878 723.107" stroke="white" stroke-opacity="0.5" stroke-width="2" stroke-miterlimit="10" stroke-linecap="round" stroke-linejoin="round" />
      <path id="Vector_152" d="M815.082 470.811C814.197 471.683 813.084 471.582 811.984 471.582" stroke="white" stroke-opacity="0.5" stroke-width="2" stroke-miterlimit="10" stroke-linecap="round" stroke-linejoin="round" />
      <path id="Vector_153" d="M813.274 575.396C813.957 576.168 814.652 576.952 815.335 577.723" stroke="white" stroke-opacity="0.5" stroke-width="2" stroke-miterlimit="10" stroke-linecap="round" stroke-linejoin="round" />
      <path id="Vector_154" d="M656.764 863.586C657.106 864.269 657.447 864.964 657.801 865.647" stroke="white" stroke-opacity="0.5" stroke-width="2" stroke-miterlimit="10" stroke-linecap="round" stroke-linejoin="round" />
    </g>
  </g>
</svg>