<svg width="964" height="246" viewBox="0 0 964 246" fill="none" xmlns="http://www.w3.org/2000/svg">
<path d="M947.891 60.4925C950.056 59.9511 951.97 59.8287 953.58 60.22C956.886 60.7871 959.405 63.6504 961.305 68.1624C963.015 72.0779 963.608 76.5662 963.129 81.595C962.88 86.4209 961.315 91.9019 958.491 98.0198L958.488 98.0267L958.484 98.0335C955.644 103.95 951.4 110.545 945.773 117.813C940.134 125.097 932.863 132.952 923.971 141.376L923.961 141.385C917.886 146.993 911.345 152.834 904.338 158.907C897.57 164.974 891.15 170.577 885.079 175.714L885.075 175.717C877.906 181.73 870.851 187.513 863.91 193.069C862.15 197.318 861.158 201.669 860.933 206.128C860.936 210.633 861.837 214.265 863.562 217.088C865.454 219.588 868.177 220.976 871.86 221.2C875.724 221.189 880.745 219.02 886.987 214.397C892.065 210.471 896.918 205.966 901.543 200.878L901.545 200.876C906.429 195.527 910.493 190.879 913.743 186.934C915.295 184.641 917.424 183.421 920.069 183.402C922.777 183.16 925.19 183.647 927.252 184.916C929.367 185.87 930.975 187.284 932.023 189.166L932.227 189.553L932.331 189.77C933.35 192.014 932.808 194.333 931.072 196.565L931.062 196.577L931.051 196.591C929.918 197.95 928.425 200.015 926.565 202.805L926.554 202.823L926.542 202.838C924.658 205.429 922.425 208.249 919.847 211.296C917.259 214.354 914.323 217.525 911.04 220.808C907.994 224.086 904.829 227.132 901.547 229.947L901.548 229.948C895.178 235.61 888.772 239.652 882.33 242.038L882.32 242.042L882.31 242.045C876.533 244.045 871.035 245.014 865.827 244.93L864.79 244.9H864.788C859.857 244.676 855.325 243.609 851.204 241.69L850.386 241.295C846.087 239.146 842.695 236.495 840.252 233.325C837.449 229.821 835.659 225.861 834.882 221.457C835.167 221.159 835.451 220.858 835.734 220.556C835.751 220.637 835.766 220.719 835.783 220.8C836.483 225.233 838.233 229.201 841.033 232.701C843.366 235.734 846.633 238.301 850.833 240.401C855.033 242.501 859.7 243.667 864.833 243.901C870.2 244.134 875.917 243.201 881.983 241.101C888.283 238.768 894.583 234.8 900.883 229.201C903.741 226.75 906.511 224.122 909.19 221.315L910.333 220.101C913.191 217.242 915.782 214.473 918.104 211.793L919.083 210.651C921.65 207.617 923.867 204.817 925.733 202.25C927.367 199.8 928.732 197.886 929.829 196.508L930.283 195.951C931.916 193.851 932.266 191.867 931.333 190C930.4 188.134 928.883 186.733 926.783 185.8C924.916 184.633 922.699 184.167 920.133 184.401L919.701 184.412C917.568 184.535 915.846 185.582 914.533 187.55C911.267 191.517 907.183 196.184 902.283 201.55C897.616 206.683 892.716 211.234 887.583 215.201L886.414 216.048C880.631 220.15 875.77 222.201 871.833 222.201L871.464 222.175C867.678 221.871 864.768 220.363 862.733 217.651C860.983 214.807 860.054 211.245 859.944 206.966L859.933 206.101C860.151 201.726 861.088 197.453 862.742 193.284L863.083 192.451C870.083 186.851 877.199 181.017 884.433 174.951C889.741 170.459 895.318 165.61 901.162 160.404L903.683 158.151C909.808 152.842 915.576 147.712 920.986 142.761L923.283 140.651C931.596 132.776 938.473 125.413 943.914 118.564L944.983 117.201C950.233 110.419 954.253 104.253 957.042 98.7025L957.583 97.6009C960.383 91.5342 961.899 86.167 962.133 81.5003C962.599 76.6004 962.016 72.2834 960.383 68.5501C958.516 64.117 956.183 61.6672 953.383 61.2005C950.583 60.5006 946.383 61.551 940.783 64.3509C933.317 67.8509 925.15 73.3336 916.283 80.8001C907.65 88.2668 898.9 97.134 890.033 107.401C881.4 117.434 873 128.751 864.833 141.351C856.666 153.717 849.433 166.901 843.133 180.901C842.104 183.086 841.149 185.343 840.263 187.67C839.658 188.403 839.024 189.159 838.364 189.94C839.515 186.659 840.801 183.509 842.221 180.491L843.417 177.866C849.453 164.792 856.314 152.436 863.999 140.799C872.185 128.169 880.611 116.818 889.275 106.748L889.276 106.746C898.169 96.4498 906.953 87.5478 915.629 80.0443L915.639 80.0355C924.547 72.5334 932.788 66.9933 940.358 63.4446C943.188 62.0311 945.702 61.0396 947.891 60.4925ZM940.083 85.0003C940.55 86.4003 940.082 88.5002 938.683 91.3001C937.516 93.8668 935.65 96.9007 933.083 100.401C930.516 103.667 927.483 107.284 923.983 111.25C920.717 115.217 917.217 119.067 913.483 122.8C904.85 131.9 894.816 141.701 883.383 152.201C887.116 144.967 891.783 137.5 897.383 129.8C901.758 123.675 907.158 116.935 913.584 109.579L914.883 108.101C921.883 100.168 930.283 92.467 940.083 85.0003ZM939.191 86.9485C930.076 94.0202 922.224 101.291 915.633 108.762C908.649 116.677 902.838 123.884 898.196 130.382L898.191 130.389C893.982 136.177 890.307 141.827 887.163 147.339C896.751 138.4 905.283 129.992 912.758 122.113L912.767 122.103L912.776 122.093C916.487 118.382 919.965 114.556 923.211 110.615L923.222 110.602L923.233 110.589C926.717 106.641 929.731 103.046 932.28 99.803C934.823 96.3348 936.646 93.3657 937.772 90.887L937.78 90.8694L937.789 90.8528C938.467 89.4963 938.897 88.3514 939.106 87.4085C939.142 87.2476 939.169 87.0941 939.191 86.9485Z" fill="#ddd"/>
<path d="M835.783 220.8C835.835 221.128 835.894 221.454 835.957 221.777C833.192 224.688 830.333 227.412 827.377 229.947L827.378 229.948C821.008 235.61 814.602 239.652 808.16 242.038L808.15 242.042L808.141 242.045C802.363 244.045 796.866 245.014 791.657 244.93L790.62 244.9H790.618C785.687 244.676 781.155 243.609 777.034 241.69L776.216 241.295C771.917 239.146 768.525 236.495 766.082 233.325C763.314 229.864 761.533 225.958 760.74 221.619C761.027 221.321 761.312 221.02 761.597 220.718C761.602 220.745 761.607 220.773 761.613 220.8C762.313 225.233 764.063 229.201 766.863 232.701C769.197 235.734 772.463 238.301 776.663 240.401C780.863 242.501 785.53 243.667 790.663 243.901C795.694 244.119 801.033 243.313 806.68 241.481L807.813 241.101C814.113 238.768 820.413 234.8 826.713 229.201C829.827 226.532 832.833 223.649 835.734 220.556C835.751 220.637 835.766 220.719 835.783 220.8ZM873.721 60.4925C875.886 59.9511 877.8 59.8287 879.41 60.22C882.716 60.7871 885.235 63.6504 887.135 68.1624C888.845 72.0779 889.438 76.5662 888.959 81.595C888.71 86.4209 887.145 91.9019 884.321 98.0198L884.318 98.0267L884.314 98.0335C881.474 103.95 877.23 110.545 871.603 117.813C865.964 125.097 858.693 132.952 849.801 141.376L849.791 141.385C843.716 146.993 837.175 152.834 830.168 158.907C823.4 164.974 816.98 170.577 810.909 175.714L810.905 175.717C803.736 181.73 796.681 187.513 789.74 193.069C787.98 197.318 786.988 201.669 786.763 206.128C786.766 210.633 787.667 214.265 789.393 217.088C791.284 219.588 794.008 220.976 797.69 221.2C801.554 221.189 806.575 219.02 812.817 214.397C817.896 210.471 822.748 205.966 827.373 200.878L827.375 200.876C832.259 195.527 836.324 190.879 839.573 186.934C840.093 186.167 840.678 185.521 841.324 184.998C840.959 185.878 840.606 186.769 840.263 187.67C837.013 191.611 832.964 196.238 828.113 201.55C823.447 206.683 818.546 211.234 813.413 215.201L812.244 216.048C806.461 220.15 801.601 222.201 797.663 222.201L797.294 222.175C793.508 221.871 790.598 220.363 788.563 217.651C786.813 214.807 785.884 211.245 785.774 206.966L785.763 206.101C785.981 201.726 786.918 197.453 788.572 193.284L788.913 192.451C795.038 187.551 801.252 182.471 807.556 177.214L810.263 174.951C816.329 169.817 822.746 164.217 829.513 158.151C835.638 152.842 841.406 147.712 846.816 142.761L849.113 140.651C857.426 132.776 864.303 125.413 869.744 118.564L870.813 117.201C876.063 110.419 880.083 104.253 882.872 98.7025L883.413 97.6009C886.213 91.5342 887.729 86.167 887.963 81.5003C888.429 76.6004 887.846 72.2834 886.213 68.5501C884.346 64.117 882.013 61.6672 879.213 61.2005C876.413 60.5006 872.213 61.551 866.613 64.3509C859.147 67.8509 850.98 73.3336 842.113 80.8001C833.48 88.2668 824.73 97.134 815.863 107.401C807.23 117.434 798.83 128.751 790.663 141.351C782.496 153.717 775.263 166.901 768.963 180.901C767.989 182.969 767.081 185.102 766.234 187.298C766.166 187.381 766.096 187.464 766.029 187.55C765.385 188.463 764.745 189.338 764.113 190.177C765.285 186.811 766.597 183.581 768.051 180.491L769.247 177.866C775.283 164.792 782.144 152.436 789.829 140.799C798.016 128.169 806.441 116.818 815.105 106.748L815.106 106.746C823.999 96.4498 832.783 87.5478 841.459 80.0443L841.469 80.0355C850.377 72.5334 858.618 66.9933 866.188 63.4446C869.018 62.0311 871.532 61.0396 873.721 60.4925ZM865.913 85.0003C866.38 86.4003 865.913 88.5002 864.513 91.3001C863.346 93.8668 861.48 96.9007 858.913 100.401C856.346 103.667 853.313 107.284 849.813 111.25C846.547 115.217 843.047 119.067 839.313 122.8C830.68 131.9 820.646 141.701 809.213 152.201C812.946 144.967 817.613 137.5 823.213 129.8C827.588 123.675 832.988 116.935 839.414 109.579L840.713 108.101C847.713 100.168 856.113 92.467 865.913 85.0003ZM865.021 86.9485C855.906 94.0202 848.055 101.291 841.463 108.762C834.479 116.677 828.668 123.884 824.026 130.382L824.021 130.389C819.812 136.177 816.137 141.827 812.993 147.339C822.581 138.4 831.113 129.992 838.588 122.113L838.597 122.103L838.606 122.093C842.317 118.382 845.795 114.556 849.041 110.615L849.052 110.602L849.063 110.589C852.547 106.641 855.561 103.046 858.11 99.803C860.653 96.3348 862.476 93.3657 863.602 90.887L863.61 90.8694L863.619 90.8528C864.297 89.4963 864.727 88.3514 864.936 87.4085C864.972 87.2476 864.999 87.0941 865.021 86.9485Z" fill="#ddd"/>
<path d="M761.613 220.8C761.674 221.183 761.745 221.563 761.821 221.939C759.104 224.79 756.294 227.459 753.393 229.947L753.393 229.948C747.054 235.582 741.362 239.51 736.323 241.669C731.648 243.673 727.42 244.667 723.662 244.58L722.917 244.548C719.247 244.319 716.066 243.224 713.418 241.235L712.895 240.825C710.498 238.863 708.398 236.605 706.596 234.053C703.074 236.241 699.252 238.53 695.13 240.916L695.129 240.915C690.694 243.617 684.062 244.901 675.379 244.901C669.348 244.901 664.053 243.55 659.53 240.815L659.095 240.546C654.475 237.628 651.077 233.493 648.903 228.179C648.333 226.785 647.864 225.328 647.495 223.809C647.774 223.533 648.051 223.255 648.328 222.976C648.705 224.666 649.205 226.274 649.829 227.8C651.929 232.933 655.196 236.901 659.629 239.701C663.924 242.413 668.985 243.812 674.812 243.897L675.379 243.901C684.012 243.901 690.429 242.617 694.629 240.05C699.062 237.483 703.146 235.034 706.879 232.701C708.745 235.5 710.963 237.95 713.529 240.05C716.096 242.15 719.246 243.317 722.979 243.55C726.713 243.783 731.029 242.85 735.929 240.75C740.829 238.65 746.429 234.801 752.729 229.201C755.788 226.579 758.742 223.749 761.597 220.718C761.602 220.745 761.607 220.773 761.613 220.8ZM718.779 153.601C721.813 152.901 724.262 153.251 726.129 154.651C727.995 156.051 729.046 158.267 729.279 161.3C729.513 164.1 729.046 167.484 727.879 171.451C726.946 175.184 725.313 179.384 722.979 184.05C720.879 188.483 718.079 192.918 714.579 197.351C711.079 202.017 707.463 206.101 703.729 209.601C700.23 213.101 696.729 215.9 693.229 218L692.575 218.385C689.321 220.258 686.272 221.413 683.429 221.851C680.629 222.317 678.412 221.85 676.779 220.451C674.913 219.051 673.746 216.951 673.279 214.151C673.046 211.117 673.396 207.734 674.329 204C675.423 200.282 677.029 196.358 679.148 192.229L679.579 191.401C681.912 186.967 684.829 182.417 688.329 177.75C691.829 173.317 695.329 169.351 698.829 165.851C702.562 162.351 706.062 159.55 709.329 157.451C712.829 155.35 715.979 154.068 718.779 153.601ZM725.529 155.451C723.971 154.282 721.852 153.917 719.004 154.575L718.974 154.581L718.943 154.587C716.311 155.026 713.285 156.244 709.853 158.302C706.66 160.357 703.218 163.107 699.527 166.566C696.061 170.033 692.59 173.967 689.114 178.37C685.648 182.994 682.766 187.493 680.464 191.867C678.16 196.245 676.438 200.375 675.294 204.26C674.388 207.889 674.057 211.142 674.272 214.028C674.683 216.448 675.639 218.21 677.082 219.415L677.379 219.651L677.405 219.67L677.43 219.692C678.771 220.842 680.657 221.299 683.265 220.865L683.277 220.862C686.148 220.42 689.291 219.197 692.715 217.143C696.132 215.093 699.569 212.348 703.022 208.894L703.033 208.882L703.045 208.871C706.73 205.416 710.309 201.377 713.779 196.75L713.786 196.741L713.794 196.731C717.254 192.348 720.012 187.978 722.075 183.622L722.085 183.603C724.396 178.98 725.998 174.851 726.909 171.208L726.914 171.188L726.92 171.168C728.067 167.269 728.502 164.017 728.282 161.383V161.377C728.077 158.716 727.218 156.871 725.816 155.68L725.529 155.451ZM724.379 136.5C727.483 136.5 730.177 136.974 732.427 137.961C734.662 138.637 736.702 139.524 738.541 140.627L738.909 140.853C740.487 141.839 741.981 142.987 743.393 144.29C744.945 141.857 747.251 140.104 750.253 139.024C753.627 137.581 756.834 137.065 759.846 137.556C763.038 137.809 765.537 138.936 767.153 141.068C768.131 142.198 768.585 143.551 768.516 145.071C768.448 146.555 767.885 148.154 766.924 149.848L759.92 163.856L759.916 163.863C757.116 169.229 754.199 174.829 751.166 180.661L751.158 180.677C748.124 186.278 745.208 191.645 742.407 196.78C739.859 201.643 737.75 205.28 736.087 207.666C735.415 208.901 734.959 209.934 734.696 210.774C734.46 211.53 734.402 212.061 734.437 212.413C734.685 212.792 735.248 213.136 736.557 213.149C738.013 212.929 739.737 212.29 741.743 211.176C743.74 210.067 745.762 208.501 747.806 206.459C751.773 202.259 754.93 198.986 757.272 196.644C759.788 194.128 762.435 190.908 765.212 186.974L765.226 186.954L765.24 186.937C765.824 186.186 766.459 185.549 767.141 185.032C766.831 185.779 766.529 186.535 766.234 187.298C766.166 187.381 766.096 187.464 766.029 187.55C763.229 191.517 760.546 194.784 757.979 197.351L756.076 199.276C754.02 201.376 751.504 204.001 748.529 207.151C746.429 209.251 744.329 210.883 742.229 212.05L741.452 212.466C739.666 213.385 738.058 213.947 736.629 214.151L736.33 214.145C734.867 214.09 733.917 213.625 733.479 212.75C733.246 211.584 733.829 209.717 735.229 207.151C736.863 204.817 738.963 201.2 741.529 196.3C744.329 191.167 747.246 185.8 750.279 180.201L759.029 163.401L766.029 149.401C767.896 146.134 768.012 143.567 766.379 141.701C765.066 139.951 763.036 138.918 760.288 138.604L759.729 138.55C756.929 138.083 753.896 138.55 750.629 139.951C747.362 141.117 745.029 143.101 743.629 145.901C742.2 144.471 740.681 143.221 739.073 142.149L738.379 141.701C736.512 140.534 734.412 139.601 732.079 138.901C729.979 137.967 727.412 137.5 724.379 137.5C719.946 137.5 714.695 138.433 708.629 140.3C702.796 142.167 696.729 145.083 690.429 149.05C684.129 153.017 677.829 158.151 671.529 164.451L670.963 165.023C665.135 170.97 660.074 178.013 655.779 186.151L655.348 186.936C655.286 187.05 655.225 187.164 655.164 187.278C655.09 187.367 655.015 187.457 654.942 187.55C654.061 188.799 653.063 190.105 651.95 191.469C652.826 189.569 653.808 187.641 654.894 185.684L655.316 184.892C659.702 176.748 664.87 169.696 670.822 163.743C677.165 157.401 683.522 152.218 689.896 148.204C696.253 144.202 702.396 141.245 708.324 139.348L708.335 139.345C714.459 137.461 719.813 136.5 724.379 136.5Z" fill="#ddd"/>
<path d="M618.542 163.05C619.709 162.817 620.409 163.168 620.642 164.101L620.719 164.242C621.047 165.008 620.555 166.594 619.242 169C618.075 170.634 616.792 172.734 615.392 175.3C614.226 177.633 612.826 180.2 611.192 183C609.792 185.567 608.392 188.134 606.992 190.701L605.986 192.56C605.024 194.354 604.192 195.951 603.492 197.351C599.526 204.817 596.609 211.467 594.742 217.3C593.109 222.9 593.459 228.034 595.792 232.701C597.192 235.734 599.175 238.301 601.742 240.401C604.309 242.501 607.459 243.55 611.192 243.55C615.159 243.783 619.592 242.85 624.492 240.75C629.625 238.65 635.342 234.801 641.642 229.201C643.929 227.241 646.156 225.164 648.328 222.976C648.414 223.36 648.506 223.739 648.604 224.115C646.555 226.158 644.456 228.103 642.306 229.947L642.307 229.948C635.961 235.588 630.147 239.516 624.87 241.675C619.88 243.812 615.295 244.794 611.134 244.549C607.348 244.538 604.075 243.496 601.37 241.383L601.109 241.174C598.432 238.984 596.361 236.305 594.898 233.148L594.897 233.147C594.893 233.138 594.889 233.128 594.885 233.119C592.438 228.208 592.091 222.821 593.782 217.021L593.79 216.995C595.68 211.089 598.624 204.382 602.609 196.881C603.548 195.005 604.716 192.785 606.114 190.222C607.514 187.655 608.914 185.088 610.314 182.522L610.328 182.496C611.953 179.711 613.343 177.163 614.498 174.853L614.506 174.837L614.515 174.822C615.91 172.264 617.2 170.146 618.387 168.478C619.059 167.241 619.479 166.28 619.681 165.575C619.782 165.22 619.817 164.967 619.817 164.8C619.817 164.702 619.805 164.655 619.801 164.641L619.714 164.511L619.672 164.343C619.608 164.089 619.525 164.048 619.495 164.033C619.424 163.997 619.211 163.937 618.738 164.032C617.7 164.239 616.276 164.776 614.439 165.695L614.413 165.708L614.387 165.72C612.821 166.391 611.501 167.164 610.417 168.032L610.389 168.054L610.359 168.075C606.649 170.625 602.936 173.41 599.223 176.427L599.208 176.439L599.192 176.45C595.545 179.186 592.124 182.145 588.928 185.329L565.205 238.359L565.196 238.378L565.186 238.398C563.438 241.894 560.775 244.196 557.217 245.212L557.209 245.214L557.2 245.217C553.531 246.196 550.055 246.085 546.81 244.844C543.345 243.84 540.701 241.831 538.94 238.824C537.804 236.977 537.345 234.93 537.506 232.711C537.864 232.499 538.222 232.284 538.578 232.064C538.265 234.396 538.669 236.475 539.792 238.3C541.425 241.1 543.876 242.967 547.142 243.901C550.176 245.067 553.442 245.184 556.942 244.25C560.005 243.375 562.349 241.475 563.976 238.549L564.292 237.951L588.093 184.75C591.155 181.688 594.423 178.83 597.895 176.178L598.593 175.651C602.326 172.617 606.059 169.817 609.792 167.25C610.959 166.317 612.359 165.5 613.992 164.8C615.859 163.867 617.375 163.283 618.542 163.05ZM621.123 59.8743C624.296 59.1429 627.371 59.1393 630.335 59.8802C633.487 60.6103 636.002 61.9636 637.8 63.9935L637.995 64.1956C638.947 65.215 639.547 66.3871 639.744 67.7024C639.953 69.094 639.699 70.5643 639.065 72.0853L639.052 72.1165L639.037 72.1478C638.353 73.5163 636.964 76.6372 634.861 81.5442C632.758 86.4522 630.072 92.5254 626.804 99.762L626.799 99.7737C623.535 106.768 619.92 114.696 615.955 123.559C612.764 131.137 609.402 138.884 605.871 146.802C610.826 142.74 615.278 139.899 619.221 138.322L619.236 138.316C624.21 136.421 628.478 135.66 631.983 136.16C635.451 136.656 638.339 138.15 640.599 140.644C643.01 143.054 644.939 145.826 646.387 148.953L646.612 149.419C648.869 154.257 648.889 159.64 646.783 165.49L646.778 165.501C644.659 171.152 641.608 177.604 637.634 184.854C635.06 190.002 632.366 194.917 629.557 199.601L629.557 199.602C626.99 204.037 624.189 208.704 621.157 213.603C620.474 214.857 619.973 215.89 619.645 216.709C619.381 217.369 619.255 217.832 619.211 218.13C619.273 218.141 619.422 218.15 619.7 218.08L619.723 218.075L619.746 218.07C620.789 217.861 621.968 217.438 623.29 216.782C624.648 215.874 625.891 214.971 627.017 214.07L627.032 214.058L627.048 214.046C632.365 210.116 637.456 205.604 642.319 200.51L642.327 200.501L642.335 200.493C647.445 195.383 651.37 190.877 654.125 186.974L654.139 186.954L654.153 186.937C654.884 185.997 655.694 185.237 656.578 184.665C656.309 185.156 656.043 185.652 655.779 186.151C655.57 186.527 655.365 186.903 655.164 187.278C655.09 187.367 655.015 187.457 654.942 187.55C652.142 191.517 648.175 196.067 643.042 201.201C638.142 206.334 633.009 210.884 627.642 214.851C626.476 215.784 625.192 216.717 623.792 217.651C622.392 218.351 621.109 218.817 619.942 219.05C619.009 219.283 618.426 219.051 618.192 218.351C618.192 217.534 618.728 216.092 619.8 214.025L620.292 213.101C623.325 208.201 626.126 203.534 628.692 199.101C631.142 195.018 633.503 190.755 635.774 186.315L636.742 184.401C640.709 177.167 643.743 170.751 645.843 165.151C647.943 159.317 647.825 154.067 645.492 149.401C644.092 146.367 642.226 143.684 639.892 141.351C637.924 139.163 635.442 137.796 632.448 137.249L631.843 137.151C628.576 136.684 624.492 137.384 619.593 139.25C614.926 141.117 609.442 144.851 603.142 150.45C606.817 142.284 610.314 134.296 613.632 126.487L615.042 123.151C618.017 116.501 620.796 110.376 623.377 104.776L625.892 99.3509C628.342 93.9259 630.464 89.1567 632.258 85.0442L633.942 81.1507C636.042 76.2507 637.442 73.1005 638.142 71.7005C639.309 68.9006 638.959 66.5671 637.093 64.7005C635.459 62.8339 633.126 61.5509 630.093 60.8509C627.293 60.1509 624.376 60.1509 621.343 60.8509C618.543 61.3175 616.675 62.7169 615.742 65.0501L558.464 187.826C557.503 189.084 556.555 190.33 555.617 191.564L614.829 64.6409C615.91 61.9752 618.075 60.3968 621.123 59.8743Z" fill="#ddd"/>
<path d="M461.241 224.204C461.673 225.493 462.184 226.809 462.776 228.151C464.176 231.184 466.159 233.867 468.725 236.2C471.292 238.3 474.209 240.051 477.475 241.45C480.975 242.85 484.709 243.667 488.676 243.901C492.394 244.119 496.113 243.928 499.832 243.326L500.576 243.2C507.809 242.967 515.859 241.451 524.726 238.651C529.477 237.025 534.094 234.829 538.578 232.064C538.522 232.482 538.487 232.893 538.477 233.295C534.13 235.918 529.655 238.021 525.05 239.597L525.038 239.601L525.027 239.604C516.127 242.414 508.009 243.951 500.683 244.196C496.662 244.9 492.64 245.135 488.617 244.899C484.803 244.674 481.19 243.923 477.783 242.642L477.104 242.379L477.094 242.374L477.082 242.369C473.945 241.025 471.113 239.362 468.593 237.376L468.093 236.975L468.072 236.958L468.054 236.941C465.558 234.672 463.587 232.077 462.148 229.158L461.868 228.57L461.864 228.562L461.861 228.554C461.311 227.307 460.827 226.08 460.41 224.871C460.688 224.65 460.965 224.427 461.241 224.204ZM506.225 205.05C506.225 200.925 505.767 196.798 504.85 192.667L504.848 192.657C504.066 188.945 503.121 185.664 502.02 182.808C496.02 189.886 491.479 195.295 488.397 199.036L488.389 199.048L488.379 199.059C485.121 202.783 482.963 205.634 481.85 207.636L481.83 207.671L481.808 207.705C480.663 209.422 480.299 211.42 480.787 213.781L480.896 214.258C481.556 216.898 482.759 219.195 484.507 221.167C486.492 223.146 488.678 224.564 491.066 225.441C493.556 226.05 496.064 225.648 498.642 224.153C501.227 222.422 503.077 219.936 504.178 216.634L504.189 216.599C505.545 212.984 506.225 209.137 506.225 205.05ZM528.883 122.5C531.859 122.276 534.645 122.694 537.225 123.766L537.74 123.991C540.483 125.237 542.521 127.129 543.8 129.664C544.475 130.879 544.76 132.164 544.62 133.492C544.481 134.81 543.932 136.106 543.045 137.374C539.754 142.075 536.341 146.313 532.806 150.084L532.795 150.096L532.783 150.108C529.473 153.418 527.572 157.735 527.122 163.133L527.119 163.174L527.112 163.215C526.68 165.807 526.993 168.901 528.123 172.527C529.53 176.051 530.816 180.03 531.983 184.461C533.407 188.743 534.234 193.479 534.473 198.663C534.885 203.009 534.318 207.673 532.808 212.647C534.377 211.661 535.781 210.63 537.018 209.548L537.049 209.521L537.082 209.496C542.4 205.565 546.405 201.896 549.131 198.492C551.927 194.764 554.84 190.92 557.868 186.959C558.454 186.089 559.122 185.371 559.869 184.815L558.464 187.826C555.506 191.696 552.661 195.454 549.926 199.101C547.126 202.601 543.042 206.334 537.676 210.3C535.809 211.933 533.593 213.451 531.026 214.851C533.126 209.018 533.942 203.65 533.476 198.75C533.242 193.617 532.426 188.95 531.026 184.75C529.86 180.317 528.576 176.351 527.176 172.851C526.009 169.118 525.659 165.85 526.126 163.05C526.578 157.625 528.453 153.186 531.752 149.732L532.076 149.401C535.576 145.667 538.959 141.467 542.226 136.8C543.859 134.467 544.092 132.251 542.926 130.151C541.832 127.963 540.123 126.288 537.799 125.126L537.326 124.901C534.759 123.734 531.959 123.267 528.926 123.5C525.893 123.5 523.443 124.434 521.576 126.3L521.105 126.782C519.931 128.007 518.221 129.947 515.976 132.601C513.642 135.634 510.843 139.251 507.576 143.45C504.309 147.417 500.809 151.734 497.076 156.401C493.343 160.834 489.725 165.151 486.225 169.351C482.959 173.551 480.042 177.284 477.475 180.55C474.909 183.817 473.043 186.15 471.876 187.55C471.495 188.03 471.123 188.511 470.759 188.989C469.188 190.853 467.4 192.852 465.398 194.987C467.039 192.332 468.938 189.646 471.093 186.929L471.1 186.919L471.107 186.91C472.264 185.522 474.123 183.199 476.689 179.933C479.255 176.668 482.171 172.936 485.436 168.737L485.447 168.723L485.458 168.71C488.954 164.515 492.566 160.203 496.295 155.776C500.031 151.106 503.534 146.786 506.804 142.815C510.062 138.625 512.856 135.017 515.184 131.991L515.197 131.972L515.213 131.954C517.779 128.921 519.67 126.792 520.869 125.593C522.942 123.52 525.646 122.509 528.883 122.5ZM507.225 205.05C507.225 209.25 506.526 213.217 505.126 216.95C503.959 220.45 501.976 223.134 499.176 225C496.376 226.634 493.576 227.101 490.776 226.401C488.21 225.467 485.876 223.951 483.776 221.851C481.91 219.751 480.626 217.3 479.926 214.5C479.226 211.701 479.576 209.251 480.975 207.151C481.996 205.313 483.821 202.85 486.45 199.762L487.626 198.401C490.893 194.434 495.793 188.601 502.326 180.901C503.726 184.167 504.893 188.017 505.826 192.45C506.759 196.65 507.225 200.85 507.225 205.05Z" fill="#ddd"/>
<path d="M425.399 155.351C430.299 157.218 432.633 158.5 432.399 159.201L432.389 159.295C432.279 159.801 431.349 160.82 429.6 162.351C423.066 167.718 416.999 174.251 411.399 181.951L410.365 183.394C405.265 190.613 401.294 197.831 398.45 205.05C395.417 212.517 394.25 219.517 394.95 226.05C395.65 232.583 399.033 237.367 405.1 240.401C412.099 244.134 419.683 244.834 427.85 242.5C436.016 240.167 443.949 236.433 451.649 231.3C454.992 229.039 458.188 226.673 461.241 224.204C461.352 224.536 461.468 224.871 461.59 225.206C458.599 227.612 455.474 229.921 452.21 232.129L452.204 232.132C444.426 237.318 436.399 241.098 428.125 243.462C419.737 245.859 411.892 245.148 404.652 241.294C398.293 238.115 394.693 233.041 393.955 226.157C393.234 219.426 394.442 212.259 397.523 204.674C400.592 196.888 404.951 189.118 410.591 181.363C416.234 173.602 422.358 167.004 428.965 161.577C429.874 160.781 430.53 160.148 430.952 159.673C431.121 159.483 431.237 159.33 431.315 159.216C431.128 159.061 430.817 158.85 430.343 158.589C429.356 158.047 427.849 157.376 425.798 156.576C420.108 165.427 414.53 173.616 409.059 181.139C403.699 188.828 400.081 193.964 398.209 196.538L398.195 196.557L398.181 196.576C397.151 197.862 396.003 198.868 394.742 199.58C395.899 198.074 396.856 196.863 397.616 195.951C398.109 195.317 398.483 194.693 398.742 194.08C400.153 192.106 402.091 189.361 404.553 185.844L408.25 180.55C413.85 172.85 419.566 164.451 425.399 155.351ZM462.85 149.05C462.849 146.863 462.234 144.88 461.004 143.103L460.75 142.75C459.35 140.884 457.366 139.483 454.8 138.55C452.233 137.384 449.083 137.151 445.35 137.851C441.85 138.551 438.699 138.551 435.899 137.851C438.145 133.768 440.123 129.952 441.833 126.405L442.55 124.901C444.416 120.934 445.583 117.434 446.05 114.401C446.983 109.267 446.633 104.483 445 100.05C443.644 95.5296 441.411 91.9946 438.304 89.4446L438 89.2005C434.733 86.6338 430.766 85.4672 426.1 85.7005L425.662 85.7064C421.127 85.8263 416.372 87.8079 411.399 91.6507C407.9 94.4507 405.45 98.1844 404.05 102.851C402.65 107.284 401.95 112.067 401.95 117.201C402.183 122.334 402.999 127.468 404.399 132.601C406.033 137.501 408.25 141.701 411.05 145.201L404.05 155.875C401.6 159.609 399.033 163.518 396.35 167.601C391.454 174.838 386.848 181.005 382.535 186.106C382.054 186.514 381.598 186.995 381.166 187.55C380.461 188.549 379.762 189.503 379.072 190.413C379.075 190.383 379.078 190.352 379.082 190.322C379.222 189.127 379.712 188.001 380.5 186.951L380.521 186.921L380.545 186.894C385.176 181.569 390.165 174.957 395.514 167.051C400.722 159.125 405.491 151.858 409.82 145.25C407.325 141.995 405.311 138.19 403.77 133.845L403.451 132.916L403.442 132.89L403.434 132.864C402.104 127.987 401.293 123.106 401.002 118.223L400.951 117.245L400.95 117.223V117.201L400.958 116.225C401.041 111.371 401.75 106.816 403.092 102.563C404.545 97.7195 407.103 93.8074 410.775 90.8694L410.781 90.8646L410.788 90.8597C416.016 86.82 421.113 84.7113 426.061 84.7005C430.78 84.4668 434.876 85.6071 438.289 88.1624L438.617 88.4144C442.064 91.1226 444.496 94.9157 445.946 99.7278C447.637 104.331 447.991 109.28 447.037 114.551L447.038 114.552C446.552 117.711 445.347 121.307 443.455 125.326C441.738 128.976 439.726 132.913 437.425 137.142C439.733 137.52 442.304 137.439 445.153 136.869L445.165 136.867C449.013 136.146 452.372 136.362 455.173 137.622C457.706 138.549 459.749 139.925 461.255 141.773L461.55 142.151C463.079 144.19 463.849 146.501 463.85 149.05C463.85 151.397 463.057 153.407 461.457 155.007C460.556 155.908 458.715 157.978 455.909 161.251C453.119 164.507 449.86 168.464 446.131 173.125C442.641 177.546 439.034 182.317 435.309 187.439C431.594 192.546 428.348 197.416 425.567 202.048C423.024 206.673 421.068 210.818 419.691 214.487C419.135 216.162 418.948 217.461 419.045 218.426C419.127 219.243 419.405 219.797 419.837 220.182L420.031 220.337L420.079 220.371L420.122 220.41C422.285 222.377 425.436 222.719 429.929 220.922C434.498 219.094 439.321 216.342 444.4 212.65C449.496 208.711 454.479 204.425 459.347 199.789C464.23 194.906 468.17 190.617 471.174 186.92L471.185 186.906L471.197 186.892C472.134 185.822 473.189 185.019 474.355 184.492C473.327 185.78 472.501 186.799 471.876 187.55C471.495 188.03 471.123 188.511 470.759 188.989C467.902 192.38 464.332 196.218 460.05 200.5C455.15 205.167 450.133 209.484 445 213.451C439.867 217.184 434.966 219.984 430.3 221.851L429.865 222.019C425.408 223.7 421.937 223.411 419.45 221.151C417.919 220.057 417.618 217.938 418.548 214.793L418.75 214.151C419.975 210.884 421.646 207.26 423.765 203.279L424.7 201.55C427.15 197.467 429.958 193.205 433.122 188.765L434.5 186.851C438.233 181.718 441.85 176.934 445.35 172.5C448.616 168.417 451.526 164.87 454.078 161.859L455.149 160.601C457.599 157.742 459.336 155.777 460.356 154.705L460.75 154.3C462.15 152.9 462.85 151.15 462.85 149.05ZM486.322 199.914C485.511 200.949 484.642 202.017 483.719 203.119C484.472 202.14 485.34 201.072 486.322 199.914ZM426.356 103.21C427.614 103.306 428.462 104.119 428.899 105.651C429.366 107.051 429.366 108.917 428.899 111.25C428.433 113.584 427.617 116.151 426.45 118.951L426.007 120C424.96 122.45 423.825 124.901 422.6 127.351C421.2 124.784 420.266 122.1 419.8 119.3C419.362 116.675 419.232 114.255 419.41 112.04L419.45 111.601C419.888 109.195 420.53 107.301 421.378 105.92L421.55 105.651C422.716 104.017 424.233 103.201 426.1 103.201L426.356 103.21ZM426.1 104.201C424.589 104.201 423.367 104.833 422.374 106.216C421.555 107.45 420.894 109.266 420.441 111.735C420.223 113.955 420.333 116.42 420.786 119.136C421.127 121.184 421.73 123.168 422.594 125.091C423.642 122.915 424.62 120.74 425.526 118.566C426.674 115.811 427.468 113.308 427.919 111.054C428.342 108.939 428.341 107.341 428.019 106.191L427.951 105.967L427.944 105.947L427.938 105.925C427.739 105.227 427.469 104.808 427.191 104.566C426.931 104.338 426.591 104.201 426.1 104.201Z" fill="#ddd"/>
<path d="M400.175 192.065C400.179 193.571 399.554 195.087 398.405 196.565L398.394 196.577L398.384 196.591C397.234 197.971 395.613 200.055 393.516 202.851L393.515 202.85C391.628 205.443 389.281 208.259 386.479 211.296L385.502 212.445C383.196 215.135 380.711 217.914 378.049 220.781C374.995 224.069 371.821 227.124 368.529 229.947L368.53 229.948C362.191 235.582 356.499 239.51 351.46 241.669C346.785 243.673 342.557 244.667 338.799 244.58L338.054 244.548C334.384 244.319 331.203 243.224 328.555 241.235L328.032 240.825C325.635 238.863 323.535 236.605 321.732 234.053C318.211 236.241 314.389 238.53 310.267 240.916L310.266 240.915C305.83 243.617 299.198 244.901 290.516 244.901C284.485 244.901 279.189 243.55 274.667 240.815L274.231 240.546C269.612 237.628 266.214 233.493 264.04 228.179C263.318 226.414 262.759 224.549 262.359 222.583C262.647 222.304 262.933 222.027 263.216 221.75C263.609 223.893 264.193 225.91 264.966 227.8C267.066 232.933 270.332 236.901 274.766 239.701C279.06 242.413 284.122 243.812 289.949 243.897L290.516 243.901C299.149 243.901 305.566 242.617 309.766 240.05C314.199 237.483 318.282 235.034 322.016 232.701C323.882 235.5 326.099 237.95 328.666 240.05C331.233 242.15 334.383 243.317 338.116 243.55C341.849 243.783 346.166 242.85 351.065 240.75C355.965 238.65 361.566 234.801 367.866 229.201C370.724 226.751 373.493 224.122 376.173 221.315L377.315 220.101C380.349 216.834 383.149 213.684 385.716 210.651C388.516 207.617 390.849 204.817 392.716 202.25C394.816 199.45 396.449 197.35 397.616 195.951C398.109 195.317 398.483 194.693 398.742 194.08C399.171 193.48 399.649 192.808 400.175 192.065ZM333.916 153.601C336.949 152.901 339.399 153.251 341.266 154.651C343.132 156.051 344.183 158.267 344.416 161.3C344.649 164.1 344.182 167.484 343.016 171.451C342.082 175.184 340.449 179.384 338.116 184.05C336.016 188.483 333.216 192.918 329.716 197.351C326.216 202.017 322.599 206.101 318.866 209.601C315.366 213.101 311.866 215.9 308.366 218L307.712 218.385C304.458 220.258 301.409 221.413 298.565 221.851C295.766 222.317 293.549 221.85 291.916 220.451C290.049 219.051 288.883 216.951 288.416 214.151C288.183 211.117 288.532 207.734 289.466 204C290.559 200.282 292.166 196.358 294.285 192.229L294.716 191.401C297.049 186.967 299.966 182.417 303.466 177.75C306.747 173.594 310.028 169.848 313.309 166.512L313.966 165.851C317.699 162.351 321.199 159.55 324.466 157.451C327.747 155.482 330.721 154.231 333.387 153.698L333.916 153.601ZM340.666 155.451C339.108 154.282 336.989 153.917 334.141 154.575L334.11 154.581L334.08 154.587C331.448 155.026 328.422 156.244 324.99 158.302C321.796 160.357 318.354 163.107 314.664 166.566C311.198 170.033 307.727 173.967 304.251 178.37C300.784 182.994 297.902 187.493 295.6 191.867C293.296 196.245 291.575 200.375 290.431 204.26C289.525 207.889 289.193 211.142 289.409 214.028C289.82 216.448 290.775 218.21 292.219 219.415L292.516 219.651L292.542 219.67L292.566 219.692C293.908 220.842 295.794 221.299 298.401 220.865L298.414 220.862C301.284 220.42 304.428 219.197 307.851 217.143C311.268 215.093 314.705 212.348 318.159 208.894L318.17 208.882L318.182 208.871C321.867 205.416 325.446 201.377 328.916 196.75L328.923 196.741L328.931 196.731C332.391 192.348 335.149 187.978 337.212 183.622L337.222 183.603C339.533 178.98 341.135 174.851 342.046 171.208L342.051 171.188L342.057 171.168C343.203 167.269 343.638 164.017 343.419 161.383V161.377C343.214 158.716 342.354 156.871 340.953 155.68L340.666 155.451ZM339.516 136.5C342.619 136.5 345.313 136.974 347.563 137.961C349.799 138.637 351.839 139.524 353.678 140.627L354.046 140.853C355.624 141.839 357.117 142.987 358.529 144.29C360.081 141.857 362.388 140.104 365.39 139.024C368.763 137.581 371.97 137.065 374.982 137.556C378.174 137.809 380.674 138.936 382.29 141.068C383.268 142.198 383.721 143.551 383.652 145.071C383.585 146.555 383.022 148.154 382.06 149.848L375.057 163.856L375.053 163.863C372.253 169.229 369.336 174.829 366.303 180.661L366.295 180.677C363.261 186.278 360.344 191.645 357.544 196.78C354.996 201.643 352.887 205.28 351.224 207.666C350.552 208.901 350.095 209.934 349.833 210.774C349.597 211.53 349.538 212.061 349.574 212.413C349.822 212.792 350.385 213.136 351.693 213.149C353.15 212.929 354.874 212.29 356.88 211.176C358.877 210.067 360.899 208.501 362.942 206.459C366.91 202.259 370.067 198.986 372.409 196.644C374.925 194.128 377.571 190.908 380.349 186.974L380.362 186.954L380.377 186.937C381.525 185.46 382.866 184.426 384.388 183.872C383.764 184.638 383.147 185.383 382.535 186.106C382.054 186.514 381.598 186.995 381.166 187.55C378.366 191.517 375.683 194.784 373.116 197.351L371.213 199.276C369.157 201.376 366.641 204.001 363.666 207.151C361.566 209.251 359.466 210.883 357.366 212.05L356.589 212.466C354.802 213.385 353.195 213.947 351.766 214.151L351.467 214.145C350.004 214.09 349.054 213.625 348.616 212.75C348.397 211.657 348.896 209.948 350.113 207.623L350.366 207.151C351.999 204.817 354.099 201.2 356.666 196.3C358.066 193.733 359.495 191.108 360.953 188.425L365.416 180.201L374.166 163.401L381.166 149.401C383.033 146.134 383.149 143.567 381.516 141.701C380.203 139.951 378.173 138.918 375.425 138.604L374.866 138.55C372.066 138.083 369.032 138.55 365.766 139.951C362.499 141.117 360.166 143.101 358.766 145.901C357.336 144.471 355.818 143.221 354.21 142.149L353.516 141.701C351.649 140.534 349.549 139.601 347.216 138.901C345.116 137.967 342.549 137.5 339.516 137.5C335.082 137.5 329.832 138.433 323.766 140.3C317.932 142.167 311.865 145.083 305.565 149.05C299.265 153.017 292.966 158.151 286.666 164.451L286.1 165.023C280.272 170.97 275.211 178.013 270.916 186.151L270.484 186.936C270.463 186.974 270.443 187.013 270.423 187.051C270.3 187.211 270.179 187.376 270.062 187.55C269.157 188.649 268.287 189.694 267.454 190.686C268.235 189.04 269.094 187.372 270.031 185.684L270.453 184.892C274.839 176.748 280.006 169.696 285.959 163.743C292.302 157.401 298.659 152.218 305.033 148.204C311.39 144.202 317.532 141.245 323.461 139.348L323.472 139.345C329.596 137.461 334.95 136.5 339.516 136.5Z" fill="#ddd"/>
<path d="M145.112 142.05C144.879 151.383 144.063 160.834 142.663 170.401C141.263 179.734 139.513 188.484 137.413 196.651C135.546 204.817 133.679 212.051 131.812 218.351L129.362 226.576C128.662 228.909 128.079 230.834 127.612 232.351L127.448 232.912C126.683 235.688 126.737 237.951 127.612 239.701C128.546 241.567 130.063 242.734 132.163 243.201C134.132 243.638 136.306 243.46 138.684 242.667L139.163 242.5C141.788 241.407 144.208 239.493 146.423 236.758L146.862 236.201C149.196 233.167 152.463 228.267 156.663 221.5C160.542 215.375 164.511 208.893 168.568 202.054L170.312 199.101C174.979 191.168 179.412 183.467 183.612 176C188.046 168.3 191.546 162.117 194.112 157.451C191.312 167.95 189.212 178.334 187.812 188.601C186.646 198.867 186.763 208.084 188.163 216.25C189.796 224.417 192.946 231.067 197.612 236.201C202.359 241.173 209.186 243.737 218.094 243.893L218.963 243.901C222.9 243.901 226.53 243.593 229.852 242.978L230.513 242.851C233.794 242.195 236.973 241.128 240.049 239.652L240.663 239.351C243.725 237.82 246.788 235.878 249.851 233.527L250.463 233.05C253.321 230.804 256.447 228.112 259.842 224.973L261.312 223.601C261.96 222.977 262.593 222.359 263.216 221.75C263.288 222.143 263.367 222.531 263.452 222.915C262.976 223.379 262.496 223.849 262.006 224.321L261.998 224.328C258.016 228.076 254.376 231.248 251.08 233.837C247.768 236.44 244.445 238.577 241.11 240.244C237.766 241.917 234.298 243.114 230.709 243.831C227.134 244.546 223.217 244.901 218.963 244.901C209.744 244.901 202.497 242.44 197.378 237.388L196.89 236.891L196.881 236.882L196.873 236.873C192.062 231.581 188.843 224.755 187.182 216.447L187.18 216.433L187.177 216.419C185.757 208.14 185.644 198.826 186.819 188.488L186.82 188.477L186.822 188.465C187.9 180.559 189.392 172.586 191.296 164.545C189.341 168.013 187.071 171.999 184.479 176.499C180.277 183.969 175.843 191.672 171.175 199.608C166.503 207.549 161.947 215.025 157.508 222.035C153.307 228.803 150.02 233.736 147.655 236.81C145.243 239.946 142.545 242.174 139.547 243.423L139.526 243.432L139.505 243.441C136.976 244.36 134.593 244.658 132.385 244.265L131.945 244.177C129.711 243.68 128.015 242.459 126.928 240.54L126.719 240.148C125.623 237.956 125.687 235.21 126.657 232.056C127.589 229.028 128.987 224.366 130.853 218.067C132.713 211.792 134.574 204.579 136.437 196.428L136.44 196.414L136.444 196.402C138.535 188.272 140.278 179.556 141.674 170.252C142.803 162.535 143.55 154.896 143.917 147.334C135.776 165.933 127.825 181.388 120.059 193.685L120.054 193.692C111.624 206.804 103.287 217.146 95.037 224.689C86.8057 232.215 78.7623 237.433 70.9042 240.29C63.113 243.124 55.6471 244.55 48.5126 244.55C41.8551 244.55 35.5989 243.614 29.7499 241.734L28.5859 241.345L28.5693 241.34L28.5536 241.334C22.7805 239.114 17.7181 236.262 13.3769 232.772L12.5185 232.066L12.497 232.047L12.4755 232.028C8.45198 228.228 5.26196 223.898 2.91106 219.042L2.45207 218.065L2.44133 218.04L2.43156 218.015C0.270963 212.493 -0.446893 206.619 0.266525 200.408C1.21027 190.263 3.93476 182.448 8.55559 177.097L8.55754 177.094C13.3195 171.618 18.7074 167.776 24.7236 165.61C30.6614 163.239 36.5115 162.278 42.2626 162.751C47.9053 162.987 52.4488 163.694 55.8486 164.909L55.8915 164.924L55.9316 164.943C59.0941 166.402 61.3857 168.393 62.6835 170.959C64.1546 173.42 64.7101 175.867 64.2011 178.249C63.9236 180.649 62.6948 182.535 60.5927 183.849C58.5626 185.266 55.9563 185.14 53.0409 183.928C48.5434 182.129 44.6074 181.945 41.164 183.237L41.1376 183.246L41.1113 183.255C37.5696 184.362 34.7098 186.344 32.5048 189.21L32.4931 189.226L32.4804 189.241C30.2702 191.893 28.8204 195.111 28.1474 198.924C27.4766 202.725 27.6981 206.401 28.8056 209.965C30.1239 213.24 32.4276 216.109 35.7685 218.568C39.2819 220.754 44.1971 221.901 50.6122 221.901V222.901L49.4042 222.887C43.4433 222.75 38.7128 221.588 35.2128 219.401C31.7128 216.834 29.2622 213.8 27.8622 210.3C26.7686 206.8 26.495 203.198 27.0419 199.493L27.163 198.75C27.863 194.784 29.3796 191.401 31.7128 188.601C34.0461 185.568 37.0791 183.467 40.8124 182.3C44.5458 180.9 48.7463 181.134 53.413 183C56.2129 184.167 58.4291 184.167 60.0624 183C61.8125 181.907 62.8447 180.403 63.1591 178.489L63.2128 178.101C63.6795 176.001 63.2124 173.784 61.8124 171.451C60.6458 169.117 58.5458 167.251 55.5126 165.851C52.246 164.684 47.8127 163.984 42.2128 163.75C36.6128 163.284 30.8958 164.217 25.0624 166.55C19.2291 168.65 13.9791 172.384 9.31242 177.75C4.87912 182.884 2.19597 190.467 1.26262 200.5C0.562618 206.567 1.26223 212.284 3.36223 217.651C5.69556 222.784 8.96301 227.333 13.163 231.3C17.5963 235.033 22.8464 238.067 28.913 240.401C34.9796 242.501 41.5128 243.55 48.5126 243.55C55.0752 243.55 61.9452 242.32 69.123 239.859L70.5624 239.351C78.0218 236.638 85.7003 231.736 93.5976 224.644L94.3622 223.951C102.274 216.717 110.295 206.856 118.426 194.368L119.213 193.151C127.613 179.851 136.246 162.817 145.112 142.05ZM195.257 0.732737C198.654 -0.234894 201.688 -0.266611 204.284 0.771799C207.113 1.8093 208.969 3.78375 209.763 6.63606C210.848 9.42354 209.921 12.6908 207.545 16.2552L207.538 16.265L207.532 16.2738C205.96 18.52 203.892 22.5247 201.328 28.3529C199 34.1734 196.323 41.0415 193.297 48.9573C190.507 56.8643 187.716 65.5887 184.923 75.1312L184.921 75.138C182.128 84.4471 179.684 93.8731 177.59 103.415L177.588 103.42C175.494 112.726 173.866 121.797 172.704 130.631V130.634C171.717 137.937 171.322 144.549 171.51 150.475C177.544 141.256 183.87 131.841 190.489 122.233C197.726 111.494 204.963 101.105 212.201 91.0657C219.435 80.7989 226.435 70.9981 233.203 61.6634C239.969 52.0974 246.156 43.6927 251.763 36.4505L253.826 33.7083C258.552 27.4497 262.656 22.1702 266.136 17.8714L266.139 17.8675C270.334 12.7395 273.417 9.29362 275.354 7.59797L275.372 7.58235C278.292 5.14918 281.486 3.66366 284.945 3.16438C288.326 2.44605 291.325 2.54817 293.884 3.5716C296.546 4.63636 298.163 6.67377 298.692 9.55403C299.248 12.3333 297.842 15.6702 295.028 19.4271L295.029 19.428C282.681 36.9024 271.733 54.1396 262.184 71.14L262.182 71.1458C252.627 87.9247 244.357 103.883 237.371 119.02C230.62 133.92 225.151 147.763 220.966 160.55C217.012 173.109 214.345 184.015 212.954 193.277L212.955 193.278C211.798 202.3 212.045 209.362 213.611 214.532C214.497 216.957 215.71 218.694 217.205 219.828C218.697 220.96 220.546 221.55 222.812 221.55V222.55C217.913 222.55 214.53 219.984 212.663 214.851C211.03 209.484 210.796 202.251 211.963 193.151C213.363 183.817 216.046 172.85 220.013 160.25C224.213 147.417 229.696 133.534 236.463 118.601C243.025 104.382 250.716 89.4455 259.534 73.7913L261.312 70.6507C270.879 53.6174 281.846 36.3508 294.213 18.8509C297.013 15.1176 298.179 12.0837 297.713 9.75031C297.246 7.18373 295.846 5.43363 293.513 4.50031C291.179 3.56701 288.379 3.45071 285.112 4.15071C281.846 4.61743 278.812 6.01766 276.013 8.3509C274.146 9.98426 271.113 13.3673 266.913 18.5003C262.946 23.4003 258.162 29.5835 252.562 37.0501C246.962 44.2834 240.779 52.6837 234.013 62.2503C227.246 71.5836 220.246 81.384 213.013 91.6507C205.779 101.684 198.546 112.067 191.312 122.8C184.079 133.3 177.196 143.568 170.663 153.601C170.196 146.834 170.546 139.134 171.713 130.5C172.879 121.634 174.512 112.534 176.612 103.201C178.712 93.6339 181.163 84.1841 183.963 74.8509C186.413 66.48 188.862 58.7339 191.312 51.6136L192.362 48.6009C194.637 42.6511 196.715 37.2914 198.597 32.5228L200.413 27.9505C202.98 22.1172 205.08 18.0338 206.713 15.7005C209.046 12.2005 209.746 9.28382 208.812 6.95051C208.112 4.38397 206.479 2.63387 203.913 1.70051C201.58 0.767189 198.779 0.767189 195.513 1.70051C192.479 2.4005 189.912 4.26688 187.812 7.30012C178.712 19.4334 170.312 33.2009 162.612 48.6009L161.172 51.4925C153.98 65.9709 146.994 80.7572 140.213 95.8509C132.98 111.717 125.979 127.234 119.213 142.401L117.941 145.227C111.57 159.268 104.994 171.976 98.2128 183.351L97.5341 184.459C90.5127 195.846 83.2718 205.043 75.8124 212.05C68.1124 219.283 59.7122 222.901 50.6122 222.901V221.901C59.4171 221.901 67.5813 218.411 75.1279 211.322C82.7434 204.168 90.1544 194.681 97.3534 182.838C104.563 170.744 111.546 157.13 118.3 141.993C125.068 126.824 132.068 111.305 139.303 95.4359C146.541 79.3253 154.013 63.5647 161.719 48.1536C169.442 32.707 177.872 18.8878 187.013 6.70051C189.216 3.53041 191.962 1.50181 195.257 0.732737ZM271.853 184.414C271.537 184.988 271.224 185.566 270.916 186.151C270.749 186.451 270.585 186.752 270.423 187.051C270.3 187.211 270.179 187.376 270.062 187.55C266.796 191.517 263.996 194.784 261.663 197.351C259.563 199.684 256.413 202.951 252.213 207.151L251.814 207.543C249.805 209.498 247.487 211.351 244.862 213.101C242.296 214.967 239.612 216.6 236.812 218C234.012 219.4 231.329 220.567 228.763 221.5C226.429 222.2 224.446 222.55 222.812 222.55V221.55C224.309 221.55 226.182 221.228 228.454 220.548C230.97 219.632 233.607 218.485 236.365 217.106C239.115 215.731 241.752 214.126 244.274 212.291L244.291 212.28L244.308 212.269C247.06 210.434 249.458 208.491 251.506 206.444C255.702 202.248 258.837 198.995 260.919 196.682L260.923 196.678C263.236 194.134 266.016 190.889 269.267 186.943C270.001 185.855 270.866 185.007 271.853 184.414Z" fill="#ddd"/>
</svg>

