<svg width="27" height="27" viewBox="0 0 27 27" fill="none" xmlns="http://www.w3.org/2000/svg">
<path d="M13.5 0.5C17.6421 0.5 21 3.85786 21 8C21 11.0686 19.1559 13.7038 16.5166 14.8652C19.2165 15.5435 21.3406 17.0964 22.8828 18.9277C24.9462 21.3781 26 24.3642 26 26.5H25C25 24.6358 24.0537 21.8719 22.1172 19.5723C20.1942 17.2888 17.3267 15.5 13.5 15.5C9.66982 15.5 6.67308 17.292 4.62305 19.583C2.55851 21.8904 1.5 24.6519 1.5 26.5H0.5C0.5 24.3482 1.69173 21.3595 3.87695 18.917C5.51278 17.0887 7.73126 15.5378 10.4756 14.8623C7.84035 13.6992 6 11.0656 6 8C6 3.85786 9.35786 0.5 13.5 0.5ZM13.5 1.5C9.91015 1.5 7 4.41015 7 8C7 11.5899 9.91015 14.5 13.5 14.5C17.0899 14.5 20 11.5899 20 8C20 4.41015 17.0899 1.5 13.5 1.5Z" fill="white"/>
<path d="M16.5166 14.8652L16.3152 14.4076L14.9806 14.9949L16.3948 15.3502L16.5166 14.8652ZM22.8828 18.9277L23.2653 18.6057L23.2653 18.6057L22.8828 18.9277ZM26 26.5V27H26.5V26.5H26ZM25 26.5H24.5V27H25V26.5ZM22.1172 19.5723L22.4996 19.2502L22.4996 19.2502L22.1172 19.5723ZM4.62305 19.583L4.25044 19.2496L4.25043 19.2496L4.62305 19.583ZM1.5 26.5V27H2V26.5H1.5ZM0.5 26.5H0V27H0.5V26.5ZM3.87695 18.917L3.50433 18.5836L3.50432 18.5836L3.87695 18.917ZM10.4756 14.8623L10.5951 15.3478L12.0195 14.9972L10.6775 14.4049L10.4756 14.8623ZM13.5 0.5V1C17.366 1 20.5 4.13401 20.5 8H21H21.5C21.5 3.58172 17.9183 0 13.5 0V0.5ZM21 8H20.5C20.5 10.8629 18.78 13.323 16.3152 14.4076L16.5166 14.8652L16.718 15.3229C19.5319 14.0847 21.5 11.2743 21.5 8H21ZM16.5166 14.8652L16.3948 15.3502C18.9761 15.9986 21.0137 17.4844 22.5004 19.2498L22.8828 18.9277L23.2653 18.6057C21.6676 16.7084 19.457 15.0884 16.6384 14.3803L16.5166 14.8652ZM22.8828 18.9277L22.5004 19.2498C24.5003 21.6248 25.5 24.5 25.5 26.5H26H26.5C26.5 24.2283 25.3922 21.1314 23.2653 18.6057L22.8828 18.9277ZM26 26.5V26H25V26.5V27H26V26.5ZM25 26.5H25.5C25.5 24.5 24.4996 21.6252 22.4996 19.2502L22.1172 19.5723L21.7347 19.8943C23.6078 22.1186 24.5 24.7717 24.5 26.5H25ZM22.1172 19.5723L22.4996 19.2502C20.4996 16.8752 17.4999 15 13.5 15V15.5V16C17.1535 16 19.8889 17.7024 21.7347 19.8943L22.1172 19.5723ZM13.5 15.5V15C9.50032 15 6.37549 16.8747 4.25044 19.2496L4.62305 19.583L4.99565 19.9164C6.97067 17.7092 9.83932 16 13.5 16V15.5ZM4.62305 19.583L4.25043 19.2496C2.1254 21.6246 1 24.5 1 26.5H1.5H2C2 24.8038 2.99162 22.1562 4.99567 19.9164L4.62305 19.583ZM1.5 26.5V26H0.5V26.5V27H1.5V26.5ZM0.5 26.5H1C1 24.5002 2.12479 21.6253 4.24959 19.2504L3.87695 18.917L3.50432 18.5836C1.25868 21.0936 0 24.1963 0 26.5H0.5ZM3.87695 18.917L4.24957 19.2504C5.83046 17.4835 7.9649 15.9952 10.5951 15.3478L10.4756 14.8623L10.3561 14.3768C7.49763 15.0804 5.1951 16.6939 3.50433 18.5836L3.87695 18.917ZM10.4756 14.8623L10.6775 14.4049C8.21658 13.3187 6.5 10.8601 6.5 8H6H5.5C5.5 11.2711 7.46412 14.0797 10.2737 15.3197L10.4756 14.8623ZM6 8H6.5C6.5 4.13401 9.63401 1 13.5 1V0.5V0C9.08172 0 5.5 3.58172 5.5 8H6ZM13.5 1.5V1C9.63401 1 6.5 4.13401 6.5 8H7H7.5C7.5 4.68629 10.1863 2 13.5 2V1.5ZM7 8H6.5C6.5 11.866 9.63401 15 13.5 15V14.5V14C10.1863 14 7.5 11.3137 7.5 8H7ZM13.5 14.5V15C17.366 15 20.5 11.866 20.5 8H20H19.5C19.5 11.3137 16.8137 14 13.5 14V14.5ZM20 8H20.5C20.5 4.13401 17.366 1 13.5 1V1.5V2C16.8137 2 19.5 4.68629 19.5 8H20Z" fill="white"/>
</svg>
