<svg preserveAspectRatio="none" width="100%" height="100%" overflow="visible" style="display: block;" viewBox="0 0 173.014 27.5" fill="none" xmlns="http://www.w3.org/2000/svg">
<g id="Frame 197">
<path id="Ellipse 2" d="M13 0.5C19.9036 0.5 25.5 6.09644 25.5 13C25.5 16.6535 23.9317 19.94 21.4326 22.2256L25.8535 26.6465C26.0488 26.8417 26.0488 27.1583 25.8535 27.3535C25.6583 27.5488 25.3417 27.5488 25.1465 27.3535L20.6631 22.8701C18.5462 24.516 15.8891 25.5 13 25.5C6.09644 25.5 0.5 19.9036 0.5 13C0.5 6.09644 6.09644 0.5 13 0.5Z" stroke="var(--stroke-0, #BBB9B9)" stroke-linecap="round"/>
<path id="Union" d="M62.5 1C66.6421 1 70 4.35786 70 8.5C70 11.5686 68.1559 14.2038 65.5166 15.3652C68.2165 16.0435 70.3406 17.5964 71.8828 19.4277C73.9462 21.8781 75 24.8642 75 27H74C74 25.1358 73.0537 22.3719 71.1172 20.0723C69.1942 17.7888 66.3267 16 62.5 16C58.6698 16 55.6731 17.792 53.623 20.083C51.5585 22.3904 50.5 25.1519 50.5 27H49.5C49.5 24.8482 50.6917 21.8595 52.877 19.417C54.5128 17.5887 56.7313 16.0378 59.4756 15.3623C56.8404 14.1992 55 11.5656 55 8.5C55 4.35786 58.3579 1 62.5 1ZM62.5 2C58.9101 2 56 4.91015 56 8.5C56 12.0899 58.9101 15 62.5 15C66.0899 15 69 12.0899 69 8.5C69 4.91015 66.0899 2 62.5 2Z" fill="var(--fill-0, #BCBABA)"/>
<path id="Vector 90" d="M99.0141 8.5C98.6142 17.3 106.847 23.1667 111.014 25C116.014 23 123.014 14.5 123.014 9C123.014 5.5 120.314 3 117.514 3C114.714 3 112.014 5.83333 111.014 7C111.014 7 107.514 3 105.014 3C102.014 3 99.1731 5 99.0141 8.5Z" stroke="var(--stroke-0, #BBB9B9)"/>
<path id="Union_2" d="M160.014 1C164.496 1 168.449 3.26948 170.785 6.71973C172.192 8.79707 173.014 11.3033 173.014 14C173.014 21.1797 167.193 27 160.014 27C155.191 27 150.983 24.3735 148.739 20.4756C147.642 18.5685 147.014 16.3569 147.014 14C147.014 11.3033 147.836 8.79707 149.242 6.71973C151.579 3.26948 155.531 1 160.014 1ZM159.514 18.5C158.259 18.5 157.066 18.6167 155.952 18.8027C156.217 20.1814 156.589 21.4123 157.04 22.4365C157.504 23.4915 158.031 24.2831 158.565 24.7969C159.095 25.306 159.583 25.5 160.014 25.5C160.444 25.5 160.932 25.306 161.462 24.7969C161.996 24.2831 162.523 23.4915 162.987 22.4365C163.425 21.4412 163.788 20.2505 164.051 18.9189C162.649 18.668 161.12 18.5 159.514 18.5ZM154.971 18.9902C152.942 19.4139 151.218 20.0287 149.922 20.4922C151.764 23.3502 154.786 25.3738 158.298 25.877C156.805 24.7626 155.593 22.2358 154.971 18.9902ZM165.032 19.1104C164.403 22.2982 163.203 24.7755 161.729 25.876C165.195 25.3794 168.183 23.4018 170.031 20.6035C168.833 20.1533 167.102 19.554 165.032 19.1104ZM170.186 7.63086C169.044 8.14238 167.257 8.85337 165.12 9.36328C165.372 10.7972 165.514 12.3615 165.514 14C165.514 15.4459 165.404 16.8342 165.205 18.126C167.466 18.6077 169.33 19.2673 170.557 19.7334C171.485 18.0298 172.014 16.0768 172.014 14C172.014 11.6593 171.344 9.47648 170.186 7.63086ZM149.82 7.66504C148.675 9.50339 148.014 11.6737 148.014 14C148.014 16.0289 148.517 17.9387 149.405 19.6133C150.72 19.1434 152.577 18.4637 154.803 18.0029C154.616 16.7462 154.514 15.4 154.514 14C154.514 12.3821 154.65 10.8361 154.896 9.41699C152.749 8.94249 150.94 8.25805 149.82 7.66504ZM164.143 9.5752C162.849 9.83014 161.454 10 160.014 10C158.584 10 157.182 9.84896 155.877 9.61328C155.644 10.9622 155.514 12.4415 155.514 14C155.514 15.3428 155.611 16.6268 155.786 17.8193C156.95 17.6251 158.199 17.5 159.514 17.5C161.183 17.5 162.771 17.6748 164.223 17.9346C164.409 16.7096 164.514 15.3862 164.514 14C164.514 12.4268 164.379 10.9344 164.143 9.5752ZM160.014 2.5C159.583 2.5 159.095 2.69399 158.565 3.20312C158.031 3.71695 157.504 4.50851 157.04 5.56348C156.652 6.4455 156.323 7.48092 156.069 8.63184C157.312 8.85558 158.649 9 160.014 9C161.383 9 162.713 8.83737 163.949 8.59375C163.697 7.45811 163.371 6.43574 162.987 5.56348C162.523 4.50851 161.996 3.71695 161.462 3.20312C160.932 2.69399 160.444 2.5 160.014 2.5ZM158.299 2.12207C155.069 2.58427 152.254 4.33244 150.389 6.83301C151.425 7.36645 153.097 7.99319 155.088 8.43555C155.739 5.46612 156.894 3.16945 158.299 2.12207ZM161.729 2.12207C163.125 3.16321 164.274 5.43903 164.927 8.38281C166.861 7.91799 168.503 7.28045 169.608 6.79395C167.743 4.31451 164.941 2.58195 161.729 2.12207Z" fill="var(--fill-0, #BBB9B9)"/>
</g>
</svg>
