<svg preserveAspectRatio="none" width="100%" height="100%" overflow="visible" style="display: block;" viewBox="0 0 80.5 29" fill="none" xmlns="http://www.w3.org/2000/svg">
<g id="Group 257">
<path id="Ellipse 2" d="M14 1C21.1797 1 27 6.8203 27 14C27 17.6117 25.5253 20.8776 23.1475 23.2334L27.207 27.293C27.5976 27.6835 27.5976 28.3165 27.207 28.707C26.8165 29.0976 26.1835 29.0976 25.793 28.707L21.6182 24.5322C19.4772 26.0835 16.8461 27 14 27C6.8203 27 1 21.1797 1 14C1 6.8203 6.8203 1 14 1Z" stroke="var(--stroke-0, white)" stroke-width="2" stroke-linecap="round"/>
<g id="Union">
<path d="M67.5 1.99998C71.6421 1.99998 75 5.35785 75 9.49998C75 12.5685 73.1559 15.2038 70.5166 16.3652C73.2165 17.0435 75.3406 18.5964 76.8828 20.4277C78.9462 22.8781 80 25.8642 80 28H79C79 26.1358 78.0537 23.3719 76.1172 21.0723C74.1942 18.7888 71.3267 17 67.5 17C63.6698 17 60.6731 18.792 58.623 21.083C56.5585 23.3904 55.5 26.1519 55.5 28H54.5C54.5 25.8482 55.6917 22.8595 57.877 20.417C59.5128 18.5887 61.7313 17.0378 64.4756 16.3623C61.8404 15.1992 60 12.5656 60 9.49998C60 5.35785 63.3579 1.99998 67.5 1.99998ZM67.5 2.99998C63.9101 2.99998 61 5.91013 61 9.49998C61 13.0898 63.9101 16 67.5 16C71.0899 16 74 13.0898 74 9.49998C74 5.91013 71.0899 2.99998 67.5 2.99998Z" fill="var(--fill-0, white)"/>
<path d="M70.5166 16.3652L70.3152 15.9076L68.9806 16.4949L70.3948 16.8502L70.5166 16.3652ZM76.8828 20.4277L77.2653 20.1057L77.2653 20.1057L76.8828 20.4277ZM80 28V28.5H80.5V28H80ZM79 28H78.5V28.5H79V28ZM76.1172 21.0723L76.4996 20.7502L76.4996 20.7502L76.1172 21.0723ZM58.623 21.083L58.2504 20.7496L58.2504 20.7496L58.623 21.083ZM55.5 28V28.5H56V28H55.5ZM54.5 28H54V28.5H54.5V28ZM57.877 20.417L57.5043 20.0836L57.5043 20.0836L57.877 20.417ZM64.4756 16.3623L64.5951 16.8478L66.0195 16.4972L64.6775 15.9049L64.4756 16.3623ZM67.5 1.99998V2.49998C71.366 2.49998 74.5 5.63399 74.5 9.49998H75H75.5C75.5 5.08171 71.9183 1.49998 67.5 1.49998V1.99998ZM75 9.49998H74.5C74.5 12.3628 72.78 14.823 70.3152 15.9076L70.5166 16.3652L70.718 16.8229C73.5319 15.5847 75.5 12.7743 75.5 9.49998H75ZM70.5166 16.3652L70.3948 16.8502C72.9761 17.4986 75.0137 18.9843 76.5004 20.7498L76.8828 20.4277L77.2653 20.1057C75.6676 18.2084 73.457 16.5884 70.6384 15.8803L70.5166 16.3652ZM76.8828 20.4277L76.5004 20.7498C78.5003 23.1248 79.5 26 79.5 28H80H80.5C80.5 25.7283 79.3922 22.6314 77.2653 20.1057L76.8828 20.4277ZM80 28V27.5H79V28V28.5H80V28ZM79 28H79.5C79.5 26 78.4996 23.1252 76.4996 20.7502L76.1172 21.0723L75.7347 21.3943C77.6078 23.6186 78.5 26.2717 78.5 28H79ZM76.1172 21.0723L76.4996 20.7502C74.4996 18.3752 71.4999 16.5 67.5 16.5V17V17.5C71.1535 17.5 73.8889 19.2024 75.7347 21.3943L76.1172 21.0723ZM67.5 17V16.5C63.5003 16.5 60.3755 18.3747 58.2504 20.7496L58.623 21.083L58.9957 21.4164C60.9707 19.2092 63.8393 17.5 67.5 17.5V17ZM58.623 21.083L58.2504 20.7496C56.1254 23.1246 55 26 55 28H55.5H56C56 26.3038 56.9916 23.6562 58.9957 21.4164L58.623 21.083ZM55.5 28V27.5H54.5V28V28.5H55.5V28ZM54.5 28H55C55 26.0001 56.1248 23.1253 58.2496 20.7504L57.877 20.417L57.5043 20.0836C55.2587 22.5936 54 25.6962 54 28H54.5ZM57.877 20.417L58.2496 20.7504C59.8305 18.9835 61.9649 17.4952 64.5951 16.8478L64.4756 16.3623L64.3561 15.8768C61.4976 16.5804 59.1951 18.1939 57.5043 20.0836L57.877 20.417ZM64.4756 16.3623L64.6775 15.9049C62.2166 14.8187 60.5 12.3601 60.5 9.49998H60H59.5C59.5 12.771 61.4641 15.5797 64.2737 16.8197L64.4756 16.3623ZM60 9.49998H60.5C60.5 5.63399 63.634 2.49998 67.5 2.49998V1.99998V1.49998C63.0817 1.49998 59.5 5.08171 59.5 9.49998H60ZM67.5 2.99998V2.49998C63.634 2.49998 60.5 5.63399 60.5 9.49998H61H61.5C61.5 6.18628 64.1863 3.49998 67.5 3.49998V2.99998ZM61 9.49998H60.5C60.5 13.366 63.634 16.5 67.5 16.5V16V15.5C64.1863 15.5 61.5 12.8137 61.5 9.49998H61ZM67.5 16V16.5C71.366 16.5 74.5 13.366 74.5 9.49998H74H73.5C73.5 12.8137 70.8137 15.5 67.5 15.5V16ZM74 9.49998H74.5C74.5 5.63399 71.366 2.49998 67.5 2.49998V2.99998V3.49998C70.8137 3.49998 73.5 6.18628 73.5 9.49998H74Z" fill="var(--stroke-0, white)"/>
</g>
</g>
</svg>
